<?xml version="1.0" encoding="utf-8"?>
<!-- Generator: Adobe Illustrator 19.1.1, SVG Export Plug-In . SVG Version: 6.00 Build 0)  -->
<svg version="1.1" id="Layer_1" xmlns="http://www.w3.org/2000/svg" xmlns:xlink="http://www.w3.org/1999/xlink" x="0px" y="0px"
	 viewBox="0 0 142 46" style="enable-background:new 0 0 142 46;" xml:space="preserve">
<style type="text/css">
	.st0{fill:url(#SVGID_1_);}
	.st1{fill:#FFFFFF;}
</style>
<linearGradient id="SVGID_1_" gradientUnits="userSpaceOnUse" x1="47.9999" y1="23" x2="94.0001" y2="23">
	<stop  offset="0" style="stop-color:#AF0010"/>
	<stop  offset="1" style="stop-color:#A41945"/>
</linearGradient>
<rect x="48" y="0" class="st0" width="46" height="46"/>
<g>
	<path class="st1" d="M65,18.7v-6.6c0-1.6-0.5-2-1.4-2c-1,0-1.5,0.4-1.5,2v21.8c0,1.6,0.5,2,1.5,2c0.9,0,1.4-0.4,1.4-2v-7h4.8v7.4
		c0,4.2-3.3,5.4-6.3,5.4c-2.9,0-6.2-1.2-6.2-5.4V11.7c0-4.2,3.3-5.4,6.2-5.4c3,0,6.3,1.2,6.3,5.4v7H65z"/>
	<path class="st1" d="M84.7,6.9v4.2h-4.2v28h-4.8v-28h-4.2V6.9H84.7z"/>
</g>
</svg>
