<?xml version="1.0" encoding="utf-8"?>
<!-- Generator: Adobe Illustrator 19.1.1, SVG Export Plug-In . SVG Version: 6.00 Build 0)  -->
<svg version="1.1" id="Layer_1" xmlns="http://www.w3.org/2000/svg" xmlns:xlink="http://www.w3.org/1999/xlink" x="0px" y="0px"
	 viewBox="0 0 142 46" style="enable-background:new 0 0 142 46;" xml:space="preserve">
<style type="text/css">
	.st0{fill:url(#SVGID_1_);}
	.st1{fill:#FFFFFF;}
</style>
<linearGradient id="SVGID_1_" gradientUnits="userSpaceOnUse" x1="3.3673" y1="23" x2="49.3675" y2="23">
	<stop  offset="0" style="stop-color:#AF0010"/>
	<stop  offset="1" style="stop-color:#A41945"/>
</linearGradient>
<rect x="3.4" y="0" class="st0" width="46" height="46"/>
<g>
	<path class="st1" d="M21.1,18.7v-6.6c0-1.6-0.5-2-1.4-2c-1,0-1.5,0.4-1.5,2v21.8c0,1.6,0.5,2,1.5,2c0.9,0,1.4-0.4,1.4-2v-7h4.8v7.4
		c0,4.2-3.3,5.4-6.3,5.4c-2.9,0-6.2-1.2-6.2-5.4V11.7c0-4.2,3.3-5.4,6.2-5.4c3,0,6.3,1.2,6.3,5.4v7H21.1z"/>
	<path class="st1" d="M40.9,6.9v4.2h-4.2v28h-4.8v-28h-4.2V6.9H40.9z"/>
</g>
<g>
	<path class="st1" d="M69.8,14.8h3.8c-0.6,4-3.9,6.7-7.9,6.7c-4.4,0-7.9-3.4-7.9-7.9s3.6-7.9,7.9-7.9c3.9,0,7.3,2.7,7.8,6.6h-3.8
		c-1.1-4.5-8.2-4-8.2,1.3C61.5,19,68.7,19.4,69.8,14.8z"/>
	<path class="st1" d="M81.4,16.1v5.2h-3.7V5.9h6c6.1,0,7,7.5,2.3,9.8l3.3,4.9v0.7h-4l-3.2-5.2H81.4z M81.4,12.7h2.1
		c2.3,0,2.3-3.2,0-3.2h-2.1V12.7z"/>
	<path class="st1" d="M96.9,17.7h6.4v3.6H93.3V5.9h10.1v3.6h-6.4v2.2h6.3v3.6h-6.3V17.7z"/>
	<path class="st1" d="M113,5.9c5.1,0,7.6,3.9,7.6,7.7s-2.5,7.7-7.6,7.7h-5.7V5.9H113z M113,17.8c2.6,0,3.8-2.1,3.8-4.1
		s-1.2-4.2-3.8-4.2h-2v8.4H113z"/>
	<path class="st1" d="M132.4,5.7c4.4,0,8,3.4,8,7.9c0,4.5-3.6,7.9-8,7.9c-4.4,0-7.9-3.4-7.9-7.9S128,5.7,132.4,5.7z M136.6,13.6
		c0-5.8-8.4-5.8-8.4,0C128.2,19.4,136.6,19.4,136.6,13.6z"/>
	<path class="st1" d="M63.9,40.2V25.4h-5.3v-0.5h11v0.5h-5.3v14.9H63.9z"/>
	<path class="st1" d="M75.8,40.3V28.4h0.4v2.5c0.6-1.7,2.2-2.6,3.9-2.6c0.6,0,1.3,0.1,1.9,0.4v0.5c-0.7-0.3-1.3-0.4-1.9-0.4
		c-2.3,0-3.9,1.7-3.9,4v7.5H75.8z"/>
	<path class="st1" d="M99.9,32.1l0-1v-2.7h0.4v11.9h-0.4v-1.6l0-2.3c-0.8,2.5-2.8,3.9-5.4,3.9c-2.8,0-4.6-1.6-5.4-3.6
		c-0.6-1.5-0.6-3.4,0-4.9c0.8-2,2.6-3.6,5.4-3.6C97,28.3,99.2,29.6,99.9,32.1z M99.4,32c-0.7-1.8-2.4-3.3-5-3.3
		c-2.6,0-4.2,1.4-5,3.3c-0.5,1.4-0.5,3.1,0,4.6c0.7,1.8,2.4,3.3,5,3.3c2.6,0,4.2-1.4,5-3.3C100,35.1,100,33.5,99.4,32z"/>
	<path class="st1" d="M120.1,32.1l0-7.3h0.4c0,5.1,0,10.2,0,15.4h-0.4v-1.6l0-2.3c-0.8,2.5-2.8,3.9-5.4,3.9c-2.8,0-4.6-1.6-5.4-3.6
		c-0.6-1.5-0.6-3.4,0-4.9c0.8-2,2.6-3.6,5.4-3.6C117.3,28.3,119.4,29.6,120.1,32.1z M119.7,32c-0.7-1.8-2.4-3.3-4.9-3.3
		c-2.6,0-4.2,1.4-5,3.3c-0.6,1.4-0.6,3.1,0,4.6c0.7,1.8,2.4,3.3,5,3.3c2.6,0,4.2-1.4,4.9-3.3C120.2,35.1,120.2,33.5,119.7,32z"/>
	<path class="st1" d="M129.6,34.3c0,0.8,0.1,1.6,0.4,2.3c0.7,1.8,2.4,3.3,5,3.3c2.2,0,3.9-1,4.8-3h0.5c-0.9,2.2-2.9,3.4-5.3,3.4
		c-2.8,0-4.6-1.6-5.4-3.6c-0.3-0.8-0.4-1.6-0.4-2.5c0-0.8,0.1-1.7,0.4-2.4c0.8-2,2.6-3.6,5.4-3.6c3.5,0,5.8,2.5,5.8,6H129.6z
		 M140.3,33.9c-0.2-3-2.3-5.1-5.4-5.1c-2.6,0-4.2,1.4-5,3.3c-0.2,0.6-0.4,1.2-0.4,1.9H140.3z"/>
</g>
</svg>
