<?xml version="1.0" encoding="utf-8"?>
<!-- Generator: Adobe Illustrator 19.1.1, SVG Export Plug-In . SVG Version: 6.00 Build 0)  -->
<svg version="1.1" id="Layer_1" xmlns="http://www.w3.org/2000/svg" xmlns:xlink="http://www.w3.org/1999/xlink" x="0px" y="0px"
	 viewBox="11168 -21.5 100 100" style="enable-background:new 11168 -21.5 100 100;" xml:space="preserve">
<style type="text/css">
	.st0{fill:#333333;}
</style>
<g>
	<path class="st0" d="M11243.8,13.5c0,0,0-2.6-0.3-5.1c-0.3-2.4-5-3.4-6.8-4.1c-1.2-0.5-1.2-1.5-1.2-1.5c-1.6,2-3.8,2-5.5,0
		c0,0,0.1,1-1.2,1.5c-1.8,0.7-6.4,1.7-6.7,4.1c-0.3,2.4-0.3,5.1-0.3,5.1h3v-0.7c0-0.3,0.2-0.5,0.5-0.5l0,0c0.3,0,0.5,0.2,0.5,0.5
		v0.7h14v-0.7c0-0.3,0.2-0.5,0.5-0.5l0,0c0.3,0,0.5,0.2,0.5,0.5v0.7H11243.8z M11236.5,56.5c2.7,0,4.9,2.2,4.9,4.9
		c0,2.7-2.2,4.9-4.9,4.9c-2.7,0-4.9-2.2-4.9-4.9C11231.6,58.7,11233.8,56.5,11236.5,56.5z M11192.6,56h30.1v5.1h-30.1V56z
		 M11192.6,44.9h49.5V50h-49.5V44.9z M11192.6,33.9h40.9V39h-40.9V33.9z M11192.6,22.8h49.5v5.1h-49.5V22.8z M11192.6,8.2h23.2v5.1
		h-23.2V8.2z M11192.6-2.8h17.1v5.1h-17.1V-2.8z M11190.3-21.3h55.2c2.9,0,5.6,1.2,7.6,3.1s3.1,4.6,3.1,7.6v78.8
		c0,3-1.2,5.6-3.1,7.6s-4.6,3.1-7.6,3.1h-55.2c-2.9,0-5.6-1.2-7.6-3.1s-3.1-4.6-3.1-7.6v-78.8c0-2.9,1.2-5.6,3.1-7.6
		S11187.4-21.3,11190.3-21.3z M11245.6-15.4h-55.2c-1.3,0-2.5,0.5-3.4,1.4c-0.9,0.9-1.4,2.1-1.4,3.4v78.8c0,1.3,0.5,2.5,1.4,3.4
		c0.9,0.9,2.1,1.4,3.4,1.4h55.2c1.3,0,2.5-0.5,3.4-1.4c0.9-0.9,1.4-2.1,1.4-3.4v-78.8c0-1.3-0.5-2.5-1.4-3.4
		C11248.1-14.9,11246.9-15.4,11245.6-15.4z M11228.2-3.8c0,2.2,0.4,3.4,1.7,5.5c1,1.3,2,1.9,2.9,1.8c0.9,0.1,1.9-0.5,2.9-1.8
		c1.3-2.1,1.7-3.3,1.7-5.5C11237.4-10,11228.2-10,11228.2-3.8z"/>
</g>
</svg>
