<?xml version="1.0" encoding="utf-8"?>
<!-- Generator: Adobe Illustrator 19.1.1, SVG Export Plug-In . SVG Version: 6.00 Build 0)  -->
<svg version="1.1" id="Layer_1" xmlns="http://www.w3.org/2000/svg" xmlns:xlink="http://www.w3.org/1999/xlink" x="0px" y="0px"
	 viewBox="22 -21.5 100 100" style="enable-background:new 22 -21.5 100 100;" xml:space="preserve">
<style type="text/css">
	.st0{fill:#333333;}
</style>
<path class="st0" d="M49.9,6.4c-1.5,0-2.8,1.2-2.8,2.8s1.2,2.8,2.8,2.8h8.3v2.8c0,1.5,1.2,2.8,2.8,2.8s2.8-1.2,2.8-2.8v-2.8h2.8
	c4.6,0,8.3-3.7,8.3-8.3s-3.7-8.3-8.3-8.3h-2.8v-5.5H72c1.5,0,2.8-1.2,2.8-2.8s-1.2-2.8-2.8-2.8h-8.3v-2.8c0-1.5-1.2-2.8-2.8-2.8
	s-2.8,1.2-2.8,2.8v2.8h-2.8c-4.6,0-8.3,3.7-8.3,8.3s3.7,8.3,8.3,8.3h2.8v5.5H49.9z M63.7,0.9h2.8c1.5,0,2.8,1.2,2.8,2.8
	S68,6.4,66.5,6.4h-2.8V0.9z M55.5-4.6c-1.5,0-2.8-1.2-2.8-2.8s1.2-2.8,2.8-2.8h2.8v5.5H55.5z"/>
<path class="st0" d="M116.2,6.4H83.1c-1.1,0-2.1,0.7-2.6,1.7c-0.4,1-0.2,2.2,0.6,3l9.1,9.1L72,38.4L51.9,18.3
	c-1.1-1.1-2.8-1.1-3.9,0L25.9,40.4c-1.1,1.1-1.1,2.8,0,3.9l10.2,10.2v21c0,1.5,1.2,2.8,2.8,2.8c1.5,0,2.8-1.2,2.8-2.8v-21l5.5-5.5
	v26.5c0,1.5,1.2,2.8,2.8,2.8s2.8-1.2,2.8-2.8V49l5.5,5.5v21c0,1.5,1.2,2.8,2.8,2.8c1.5,0,2.8-1.2,2.8-2.8V60.1l5.5,5.5v9.9
	c0,1.5,1.2,2.8,2.8,2.8c1.5,0,2.8-1.2,2.8-2.8v-9.9l5.5-5.5v15.4c0,1.5,1.2,2.8,2.8,2.8s2.8-1.2,2.8-2.8v-21l5.5-5.5v26.5
	c0,1.5,1.2,2.8,2.8,2.8s2.8-1.2,2.8-2.8v-32l5.5-5.5v37.5c0,1.5,1.2,2.8,2.8,2.8c1.5,0,2.8-1.2,2.8-2.8V38l6.3,6.3
	c0.8,0.8,2,1,3,0.6c1-0.4,1.7-1.4,1.7-2.6V9.2C119,7.7,117.8,6.4,116.2,6.4z M113.5,35.7l-6.3-6.3l0,0c-0.5-0.5-1.2-0.8-2-0.8
	c-0.8,0-1.5,0.3-2,0.8l0,0l-11,11l0,0l-11,11l0,0L72,60.5l-9.1-9.1l0,0l-11-11l0,0c-0.5-0.5-1.2-0.8-2-0.8c-0.8,0-1.5,0.3-2,0.8l0,0
	l-9.1,9.1l-7.1-7.1l18.2-18.2l20.1,20.1c1.1,1.1,2.8,1.1,3.9,0l22.1-22.1c1.1-1.1,1.1-2.8,0-3.9l-6.3-6.3h23.7V35.7z"/>
</svg>
