<?xml version="1.0" encoding="utf-8"?>
<!-- Generator: Adobe Illustrator 19.1.1, SVG Export Plug-In . SVG Version: 6.00 Build 0)  -->
<svg version="1.1" id="Layer_1" xmlns="http://www.w3.org/2000/svg" xmlns:xlink="http://www.w3.org/1999/xlink" x="0px" y="0px"
	 viewBox="-29 -22 100 100" style="enable-background:new -29 -22 100 100;" xml:space="preserve">
<style type="text/css">
	.st0{fill:#333333;}
</style>
<g transform="translate(0,-952.36218)">
	<path class="st0" d="M-14.2,930.4c-1.7,0.2-3,1.6-3,3.3v93.2c0,1.8,1.5,3.3,3.3,3.3H55c1.8,0,3.3-1.5,3.3-3.3v-75.5
		c0-0.9-0.3-1.7-1-2.4l-17.8-17.8c-0.6-0.6-1.5-1-2.4-1h-51C-13.9,930.4-14.1,930.4-14.2,930.4z M-10.5,937h42.2v16.6
		c0,1.8,1.5,3.3,3.3,3.3h16.6v66.6h-62.1V937z M38.3,939.5l10.9,10.9H38.3V939.5z M6.1,980.2c-1.8,0-3.3,1.5-3.3,3.4c0,0,0,0,0,0
		v1.7c-1,0.3-2.1,0.8-3,1.5c-1.9,1.4-3.6,3.9-3.6,6.8c0,4,3,6.7,5.3,7.7c2.3,1,4.5,1.1,4.5,1.1s1.2,0.1,2.2,0.6
		c1,0.5,1.4,0.6,1.4,1.7c0,0.6-0.2,0.9-0.9,1.4c-0.7,0.5-1.8,0.8-2.5,0.8c-2.4,0-4.6-1.6-4.6-1.6c-1.5-1.1-3.5-0.9-4.7,0.6
		c-1.1,1.5-0.9,3.5,0.6,4.7c0,0,0,0,0.1,0.1c0,0,2.1,1.7,5.3,2.5v1.5c0,1.8,1.4,3.4,3.3,3.4c1.8,0,3.4-1.4,3.4-3.3c0,0,0-0.1,0-0.1
		v-1.6c1-0.3,2.1-0.9,3-1.6c1.9-1.4,3.6-3.8,3.6-6.8c0-4-3-6.7-5.3-7.7c-2.3-1-4.5-1.1-4.5-1.1s-1.2-0.1-2.2-0.6
		c-1-0.5-1.4-0.5-1.4-1.6c0-0.6,0.2-0.9,0.9-1.4c0.7-0.5,1.8-0.8,2.5-0.8c2.4,0,4.6,1.5,4.6,1.5c1.5,1.1,3.5,0.9,4.7-0.6
		c1.1-1.5,0.9-3.5-0.6-4.7c0,0,0,0-0.1-0.1c0,0-2.1-1.7-5.3-2.5v-1.5c0-1.8-1.4-3.4-3.3-3.4C6.2,980.2,6.2,980.2,6.1,980.2z"/>
</g>
</svg>
