<?xml version="1.0" encoding="utf-8"?>
<!-- Generator: Adobe Illustrator 19.1.1, SVG Export Plug-In . SVG Version: 6.00 Build 0)  -->
<svg version="1.1" id="Layer_1" xmlns="http://www.w3.org/2000/svg" xmlns:xlink="http://www.w3.org/1999/xlink" x="0px" y="0px"
	 viewBox="-29 -22 100 100" style="enable-background:new -29 -22 100 100;" xml:space="preserve">
<style type="text/css">
	.st0{fill:#333333;}
</style>
<path class="st0" d="M-22-9.1c-3.8,0-6.8,2.9-6.8,6.8V43c0,3.8,2.9,6.8,6.8,6.8H2.9v13.6H-9.6c-1.4,0-2.3,0.9-2.3,2.3
	s0.9,2.3,2.3,2.3H5.1h13.6h14.7c1.4,0,2.3-0.9,2.3-2.3s-0.9-2.3-2.3-2.3H21V49.7h18.1v11.3c0,3.8,2.9,6.8,6.8,6.8H64
	c3.8,0,6.8-2.9,6.8-6.8V20.3c0-3.8-2.9-6.8-6.8-6.8H52.6V-2.3c0-3.8-2.9-6.8-6.8-6.8H-22z M-22-4.6h67.9c1.4,0,2.3,0.9,2.3,2.3v15.8
	h-2.3c-3.8,0-6.8,2.9-6.8,6.8v11.3h-63.4V-2.3C-24.3-3.7-23.4-4.6-22-4.6z M45.9,18.1H64c1.4,0,2.3,0.9,2.3,2.3v2.3H43.6v-2.3
	C43.6,19,44.5,18.1,45.9,18.1z M43.6,27.1h22.6v27.2H43.6V27.1z M-24.3,36.2h63.4v9.1H18.7H5.1H-22c-1.4,0-2.3-0.9-2.3-2.3V36.2z
	 M11.9,38.4c-1.2,0-2.3,1-2.3,2.3c0,1.2,1,2.3,2.3,2.3s2.3-1,2.3-2.3C14.2,39.4,13.2,38.4,11.9,38.4z M7.4,49.7h9.1v13.6H7.4V49.7z
	 M43.6,58.8h22.6v2.3c0,1.4-0.9,2.3-2.3,2.3H45.9c-1.4,0-2.3-0.9-2.3-2.3V58.8z"/>
</svg>
