<?xml version="1.0" encoding="utf-8"?>
<!-- Generator: Adobe Illustrator 19.1.1, SVG Export Plug-In . SVG Version: 6.00 Build 0)  -->
<svg version="1.1" id="Layer_1" xmlns="http://www.w3.org/2000/svg" xmlns:xlink="http://www.w3.org/1999/xlink" x="0px" y="0px"
	 viewBox="22 -21.5 100 100" style="enable-background:new 22 -21.5 100 100;" xml:space="preserve">
<style type="text/css">
	.st0{fill:#333333;}
</style>
<path class="st0" d="M42.8-21.2c-11.3,0-20.4,9.2-20.4,20.4s9.2,20.4,20.4,20.4s20.4-9.2,20.4-20.4S54-21.2,42.8-21.2z M42.8-16.1
	c8.5,0,15.3,6.8,15.3,15.3s-6.8,15.3-15.3,15.3S27.4,7.8,27.4-0.7S34.3-16.1,42.8-16.1z M42.5-12.3c-1.3,0.1-2.3,1.3-2.3,2.6v8.9
	c0,0.7,0.3,1.3,0.8,1.8l6.4,6.4c0.9,1.1,2.5,1.3,3.6,0.4c1.1-0.9,1.3-2.5,0.4-3.6C51.2,4.1,51.1,4,51,3.9l-5.6-5.6v-7.9
	c0-1.4-1.1-2.6-2.5-2.6c0,0-0.1,0-0.1,0C42.7-12.3,42.6-12.3,42.5-12.3z M87.5,6.9c-12,0-21.7,9.7-21.7,21.7v2.6h-5.1
	c-4.2,0-7.7,3.5-7.7,7.7v7.7c0,1.4,1.1,2.6,2.5,2.6c1.4,0,2.6-1.1,2.6-2.5c0,0,0,0,0-0.1v-7.7c0-1.5,1.1-2.6,2.6-2.6h5.1v23h-5.1
	c-1.5,0-2.6-1.1-2.6-2.6c0-1.4-1.1-2.6-2.5-2.6c-1.4,0-2.6,1.1-2.6,2.5c0,0,0,0,0,0.1c0,4.2,3.5,7.7,7.7,7.7h7.7
	c1.4,0,2.6-1.1,2.6-2.6V28.7c0-9.2,7.4-16.6,16.6-16.6s16.6,7.4,16.6,16.6v31.6l-11.3,5.2c-1.4-1.4-3.3-2.2-5.4-2.2
	c-4.2,0-7.7,3.5-7.7,7.7s3.5,7.7,7.7,7.7s7.7-3.5,7.7-7.7c0-0.3,0-0.6,0-0.9l12.1-5.5h7.1c4.2,0,7.7-3.5,7.7-7.7V38.9
	c0-4.2-3.5-7.7-7.7-7.7h-5.1v-2.6C109.2,16.7,99.5,6.9,87.5,6.9z M109.2,36.3h5.1c1.5,0,2.6,1.1,2.6,2.6v17.9c0,1.5-1.1,2.6-2.6,2.6
	h-5.1V36.3z M87.5,68.3c1.4,0,2.6,1.1,2.6,2.6c0,1.4-1.1,2.6-2.6,2.6s-2.6-1.1-2.6-2.6C84.9,69.4,86.1,68.3,87.5,68.3z"/>
</svg>
