<?xml version="1.0" encoding="utf-8"?>
<!-- Generator: Adobe Illustrator 19.1.1, SVG Export Plug-In . SVG Version: 6.00 Build 0)  -->
<svg version="1.1" id="Layer_1" xmlns="http://www.w3.org/2000/svg" xmlns:xlink="http://www.w3.org/1999/xlink" x="0px" y="0px"
	 viewBox="22 -21.5 100 100" style="enable-background:new 22 -21.5 100 100;" xml:space="preserve">
<style type="text/css">
	.st0{fill:#333333;}
</style>
<g transform="translate(0,-952.36218)">
	<path class="st0" d="M39.3,943.4c-4.2,0-7.7,3.5-7.7,7.7v37.7l-8.4,14.6c-0.3,0.5-0.4,1.1-0.4,1.7v4.4c0,1.8,1.5,3.3,3.3,3.3h60.9
		c3.7,3.4,8.7,5.5,14.1,5.5c11.5,0,21-9.4,21-21c0-9.6-6.6-17.8-15.4-20.2v-26.1c0-4.2-3.5-7.7-7.7-7.7c-0.1,0-0.2,0-0.3,0
		c-1.8,0.1-3.2,1.7-3.1,3.5c0.1,1.8,1.7,3.2,3.5,3.1h0c0.7,0,1.1,0.4,1.1,1.1v25.4c-7,0.4-13.1,4.2-16.6,9.9H38.2v-35.3
		c0-0.7,0.4-1.1,1.1-1.1h48.5c1.8,0,3.3-1.4,3.4-3.3s-1.4-3.3-3.3-3.4c0,0-0.1,0-0.1,0H39.3z M65.4,953.3c-1.8,0.1-3.2,1.7-3.1,3.5
		c0.1,1.8,1.7,3.2,3.5,3.1h6.6c1.8,0,3.3-1.4,3.4-3.3s-1.4-3.3-3.3-3.4c0,0-0.1,0-0.1,0h-6.6C65.6,953.3,65.5,953.3,65.4,953.3z
		 M101,983.1c8,0,14.3,6.4,14.3,14.3s-6.4,14.3-14.3,14.3s-14.3-6.4-14.3-14.3S93.1,983.1,101,983.1z M97.7,988.5
		c-0.1,0-0.1,0-0.2,0c-0.5,0.1-0.9,0.6-0.9,1.1v15.4c0,0.6,0.5,1.1,1.1,1.1c0.2,0,0.4-0.1,0.6-0.2l11-7.7c0.5-0.3,0.6-1,0.3-1.5
		c-0.1-0.1-0.2-0.2-0.3-0.3l-11-7.7C98.2,988.6,98,988.6,97.7,988.5z M36.8,993h43.8c-0.3,1.4-0.5,2.9-0.5,4.4c0,3.2,0.7,6.1,2,8.8
		H29.4v-0.3L36.8,993z"/>
</g>
</svg>
