<?xml version="1.0" encoding="utf-8"?>
<!-- Generator: Adobe Illustrator 19.1.1, SVG Export Plug-In . SVG Version: 6.00 Build 0)  -->
<svg version="1.1" id="Layer_1" xmlns="http://www.w3.org/2000/svg" xmlns:xlink="http://www.w3.org/1999/xlink" x="0px" y="0px"
	 viewBox="0 0 450 250" style="enable-background:new 0 0 450 250;" xml:space="preserve">
<style type="text/css">
	.st0{fill:#333637;}
	.st1{fill:#393C3D;}
	.st2{fill:#FFFAE6;}
	.st3{fill:#696A6C;}
	.st4{fill:#FFFFFF;}
	.st5{fill:#8CBFDE;}
	.st6{fill:#E5AD54;}
	.st7{fill:#E5AD53;}
	.st8{fill:#FDEE97;}
	.st9{fill:#F3D56D;}
	.st10{fill:#333737;}
	.st11{fill:#717275;}
	.st12{fill:#8C8D8F;}
	.st13{fill:#D7D6D7;}
	.st14{fill:#828385;}
	.st15{fill:#5A5C5E;}
	.st16{fill:#424546;}
	.st17{fill:#616265;}
	.st18{fill:#F5723F;}
	.st19{fill:#FA9C78;}
	.st20{fill:#F5D4A1;}
	.st21{fill:#819CBB;}
	.st22{fill:#88D5F6;}
	.st23{fill:#F5733F;}
</style>
<g>
	<g>
		<g>
			<path class="st0" d="M432.9,207.1c4.4,0,8.7,0,13.1,0c1.4,0,1.4-1.9,0-1.9c-4.4,0-8.7,0-13.1,0
				C431.5,205.3,431.5,207.1,432.9,207.1z"/>
		</g>
		<g>
			<path class="st0" d="M20.6,207.2c105.7-0.1,211.4-0.1,317.2-0.1c30,0,60.1,0,90.1,0.1c1.4,0,1.4-1.9,0-1.9
				c-105.7-0.1-211.3-0.1-317-0.1c-30.1,0-60.2,0-90.3,0.1C19.2,205.3,19.2,207.2,20.6,207.2z"/>
		</g>
		<g>
			<path class="st0" d="M4.1,207.2c4-0.1,8.1-0.1,12.1,0c1.4,0,1.4-1.8,0-1.9c-4-0.1-8.1-0.1-12.1,0C2.7,205.3,2.7,207.2,4.1,207.2z
				"/>
		</g>
	</g>
	<g>
		<g>
			<path class="st0" d="M68,152.1c-6.9,0-13.9-0.1-20.8-0.1c-0.9,0-0.9,1.4,0,1.4c6.9,0,13.9,0.1,20.8,0.1
				C68.9,153.5,68.9,152.1,68,152.1z"/>
		</g>
		<g>
			<path class="st0" d="M74.2,152c-1,0-2,0.1-3,0.1c-0.9,0-0.9,1.4,0,1.4c1,0,2-0.1,3-0.1C75.1,153.3,75.1,151.9,74.2,152z"/>
		</g>
		<g>
			<path class="st0" d="M80.7,152c-1,0-2.1,0-3.1,0c-0.9,0-0.9,1.4,0,1.4c1,0,2.1,0,3.1,0C81.6,153.4,81.6,152,80.7,152z"/>
		</g>
	</g>
	<g>
		<g>
			<path class="st0" d="M109.2,83.3h0.7c0-1,0.8-1.7,1.7-1.7c1,0,1.7,0.8,1.7,1.7c0,1-0.8,1.7-1.7,1.7c-1,0-1.7-0.8-1.7-1.7H109.2
				h-0.7c0,1.7,1.4,3,3,3c1.7,0,3-1.4,3-3c0-1.7-1.4-3-3-3c-1.7,0-3,1.4-3,3H109.2z"/>
		</g>
	</g>
	<g>
		<g>
			<path class="st0" d="M336.4,145.7c10,0,19.9,0.1,29.9,0.1c0.9,0,0.9-1.4,0-1.4c-10,0-19.9-0.1-29.9-0.1
				C335.5,144.3,335.5,145.7,336.4,145.7z"/>
		</g>
		<g>
			<path class="st0" d="M327.6,145.8c1.5,0,2.9-0.1,4.4-0.1c0.9,0,0.9-1.4,0-1.4c-1.5,0-2.9,0.1-4.4,0.1
				C326.7,144.5,326.7,145.9,327.6,145.8z"/>
		</g>
		<g>
			<path class="st0" d="M318.2,145.8c1.5,0,3,0,4.4,0c0.9,0,0.9-1.4,0-1.4c-1.5,0-3,0-4.4,0C317.3,144.4,317.3,145.8,318.2,145.8z"
				/>
		</g>
		<g>
			<path class="st0" d="M312.6,145.1h-0.7c0,1-0.8,1.7-1.7,1.7c-1,0-1.7-0.8-1.7-1.7c0-1,0.8-1.7,1.7-1.7c1,0,1.7,0.8,1.7,1.7H312.6
				h0.7c0-1.7-1.4-3-3-3c-1.7,0-3,1.4-3,3c0,1.7,1.4,3,3,3c1.7,0,3-1.4,3-3H312.6z"/>
		</g>
	</g>
	<g>
		<g>
			<path class="st0" d="M404.4,134.2c-6.9,0-13.9-0.1-20.8-0.1c-0.9,0-0.9,1.4,0,1.4c6.9,0,13.9,0.1,20.8,0.1
				C405.3,135.6,405.3,134.2,404.4,134.2z"/>
		</g>
		<g>
			<path class="st0" d="M410.6,134c-1,0-2,0.1-3,0.1c-0.9,0-0.9,1.4,0,1.4c1,0,2-0.1,3-0.1C411.5,135.4,411.5,134,410.6,134z"/>
		</g>
		<g>
			<path class="st0" d="M417.1,134c-1,0-2.1,0-3.1,0c-0.9,0-0.9,1.4,0,1.4c1,0,2.1,0,3.1,0C418,135.4,418,134,417.1,134z"/>
		</g>
	</g>
	<g>
		<g>
			<path class="st0" d="M81.1,107.7c10,0,19.9,0.1,29.9,0.1c0.9,0,0.9-1.4,0-1.4c-10,0-19.9-0.1-29.9-0.1
				C80.2,106.3,80.2,107.7,81.1,107.7z"/>
		</g>
		<g>
			<path class="st0" d="M72.2,107.9c1.5,0,2.9-0.1,4.4-0.1c0.9,0,0.9-1.4,0-1.4c-1.5,0-2.9,0.1-4.4,0.1
				C71.3,106.5,71.3,107.9,72.2,107.9z"/>
		</g>
		<g>
			<path class="st0" d="M62.9,107.9c1.5,0,3,0,4.4,0c0.9,0,0.9-1.4,0-1.4c-1.5,0-3,0-4.4,0C62,106.5,62,107.9,62.9,107.9z"/>
		</g>
	</g>
	<g>
		<g>
			<path class="st0" d="M357.4,117.6c9.2,0,18.5-0.1,27.7-0.1c0.9,0,0.9-1.4,0-1.4c-9.2,0-18.5,0.1-27.7,0.1
				C356.5,116.2,356.5,117.6,357.4,117.6z"/>
		</g>
		<g>
			<path class="st0" d="M332.5,117.6c6.7,0,13.3,0,20,0c0.9,0,0.9-1.4,0-1.4c-6.7,0-13.3,0-20,0
				C331.6,116.2,331.6,117.6,332.5,117.6z"/>
		</g>
	</g>
	<g>
		<g>
			<path class="st0" d="M156.6,71.7c-10,0-19.9-0.1-29.9-0.1c-0.9,0-0.9,1.4,0,1.4c10,0,19.9,0.1,29.9,0.1
				C157.5,73.1,157.5,71.7,156.6,71.7z"/>
		</g>
		<g>
			<path class="st0" d="M165.5,71.5c-1.5,0-2.9,0.1-4.4,0.1c-0.9,0-0.9,1.4,0,1.4c1.5,0,2.9-0.1,4.4-0.1
				C166.4,72.9,166.4,71.5,165.5,71.5z"/>
		</g>
		<g>
			<path class="st0" d="M174.8,71.5c-1.5,0-3,0-4.4,0c-0.9,0-0.9,1.4,0,1.4c1.5,0,3,0,4.4,0C175.7,72.9,175.7,71.5,174.8,71.5z"/>
		</g>
		<g>
			<path class="st0" d="M180.5,72.2h0.7c0-1,0.8-1.7,1.7-1.7c1,0,1.7,0.8,1.7,1.7c0,1-0.8,1.7-1.7,1.7c-1,0-1.7-0.8-1.7-1.7H180.5
				h-0.7c0,1.7,1.4,3,3,3c1.7,0,3-1.4,3-3c0-1.7-1.4-3-3-3c-1.7,0-3,1.4-3,3H180.5z"/>
		</g>
	</g>
	<g>
		<g>
			<path class="st1" d="M132.5,205.3h-25.3c-3.4,0-6.1-2.7-6.1-6.1v-44c0-3.4,2.7-6.1,6.1-6.1h25.3c3.4,0,6.1,2.7,6.1,6.1v44
				C138.6,202.6,135.9,205.3,132.5,205.3z"/>
			<path class="st0" d="M136.2,205.6h-32.8c-1.5,0-2.7-1.2-2.7-2.7v-51.5c0-1.5,1.2-2.7,2.7-2.7h32.8c1.5,0,2.7,1.2,2.7,2.7v51.5
				C138.9,204.4,137.7,205.6,136.2,205.6z M103.4,149.4c-1.1,0-2.1,0.9-2.1,2.1v51.5c0,1.1,0.9,2.1,2.1,2.1h32.8
				c1.1,0,2.1-0.9,2.1-2.1v-51.5c0-1.1-0.9-2.1-2.1-2.1H103.4z"/>
		</g>
		<g>
			<rect x="105.4" y="153.5" class="st2" width="28.9" height="43.3"/>
		</g>
		<g>
			<path class="st3" d="M126,202.2h-12.2c-0.5,0-0.9-0.4-0.9-0.9l0,0c0-0.5,0.4-0.9,0.9-0.9H126c0.5,0,0.9,0.4,0.9,0.9l0,0
				C126.9,201.8,126.5,202.2,126,202.2z"/>
		</g>
	</g>
	<g>
		<g>
			<path class="st4" d="M148.9,106.5c0-7.8-6.4-14.2-14.2-14c-7.3,0.2-13.4,6.1-13.6,13.4c-0.2,4.7,1.9,8.8,5.3,11.5
				c1.9,1.5,3.1,3.8,3.1,6.2l0,0.2l11.6,0l0-0.6c0-2.3,1.1-4.5,2.9-6C147,114.6,148.9,110.8,148.9,106.5z"/>
		</g>
		<g>
			<path class="st0" d="M148.9,106.5l0.6,0l0,0c0-8-6.5-14.5-14.5-14.5c-0.1,0-0.2,0-0.3,0c-7.6,0.2-13.9,6.3-14.2,13.9
				c0,0.2,0,0.4,0,0.6c0,4.6,2.1,8.7,5.5,11.4c1.8,1.4,2.8,3.5,2.8,5.7v0v0l0,0.2l0,0.6l12.8,0l0-1.2c0-2.2,1-4.2,2.7-5.6
				c3.2-2.7,5.2-6.7,5.3-11.2L148.9,106.5l-0.6,0c0,4.1-1.9,7.8-4.8,10.3c-1.9,1.6-3.1,4-3.1,6.5v0l-11,0l0,0.6l0.6,0l0-0.2v0v0
				c0-2.6-1.2-5-3.3-6.7c-3.1-2.5-5-6.2-5-10.5c0-0.2,0-0.4,0-0.5c0.3-7,6.1-12.7,13.1-12.8c0.1,0,0.2,0,0.3,0c3.7,0,7,1.5,9.5,3.9
				c2.4,2.4,3.9,5.8,3.9,9.5l0,0L148.9,106.5z"/>
		</g>
		<g>
			
				<rect x="129" y="122.4" transform="matrix(1 3.036731e-003 -3.036731e-003 1 0.3821 -0.4099)" class="st4" width="12.3" height="6.4"/>
		</g>
		<g>
			<polygon class="st0" points="141.3,128.9 141.3,128.3 129.6,128.2 129.6,123 140.7,123 140.7,128.9 141.3,128.9 141.3,128.3 
				141.3,128.9 141.9,128.9 141.9,121.8 128.4,121.8 128.4,129.4 141.9,129.4 141.9,128.9 			"/>
		</g>
	</g>
	<g>
		<g>
			<path class="st0" d="M277.1,59.9c10,0,19.9,0.1,29.9,0.1c0.9,0,0.9-1.4,0-1.4c-10,0-19.9-0.1-29.9-0.1
				C276.2,58.5,276.2,59.9,277.1,59.9z"/>
		</g>
		<g>
			<path class="st0" d="M268.3,60c1.5,0,2.9-0.1,4.4-0.1c0.9,0,0.9-1.4,0-1.4c-1.5,0-2.9,0.1-4.4,0.1C267.4,58.6,267.4,60,268.3,60z
				"/>
		</g>
		<g>
			<path class="st0" d="M258.9,60c1.5,0,3,0,4.4,0c0.9,0,0.9-1.4,0-1.4c-1.5,0-3,0-4.4,0C258,58.6,258,60,258.9,60z"/>
		</g>
		<g>
			<path class="st0" d="M253.3,59.3h-0.7c0,1-0.8,1.7-1.7,1.7c-1,0-1.7-0.8-1.7-1.7c0-1,0.8-1.7,1.7-1.7c1,0,1.7,0.8,1.7,1.7H253.3
				h0.7c0-1.7-1.4-3-3-3c-1.7,0-3,1.4-3,3c0,1.7,1.4,3,3,3c1.7,0,3-1.4,3-3H253.3z"/>
		</g>
	</g>
	<g>
		<g>
			<polygon class="st5" points="81.4,188.3 103.5,188.3 113.1,180.3 113.1,161 81.4,161 			"/>
		</g>
		<g>
			<polygon class="st0" points="81.4,188.3 81.4,187.7 103.3,187.7 112.6,180 112.6,161.6 82,161.6 82,188.3 81.4,188.3 81.4,187.7 
				81.4,188.3 80.8,188.3 80.8,160.4 113.7,160.4 113.7,180.6 103.7,188.9 80.8,188.9 80.8,188.3 			"/>
		</g>
		<g>
			<polygon class="st5" points="103.5,180.3 103.5,188.3 113.1,180.3 			"/>
		</g>
		<g>
			<polygon class="st0" points="103.5,180.3 104.1,180.3 104.1,187.1 111.5,180.9 103.5,180.9 103.5,180.3 104.1,180.3 103.5,180.3 
				103.5,179.7 113.7,179.7 113.7,180.6 103.7,188.9 102.9,188.9 102.9,179.7 103.5,179.7 			"/>
		</g>
		<g>
			<polyline class="st0" points="108.3,168.4 86.9,168.4 86.9,166.8 108.3,166.8 			"/>
		</g>
		<g>
			<polyline class="st0" points="107.7,172.3 86.9,172.3 86.9,170.7 107.7,170.7 			"/>
		</g>
		<g>
			<polyline class="st0" points="107.7,176.6 86.9,176.6 86.9,175 107.7,175 			"/>
		</g>
	</g>
	<g>
		<g>
			<polygon class="st6" points="120.7,163.7 98.6,163.7 89,171.7 89,191 120.7,191 			"/>
		</g>
		<g>
			<polygon class="st0" points="120.7,163.7 120.7,164.3 98.8,164.3 89.6,172 89.6,190.5 120.1,190.5 120.1,163.7 120.7,163.7 
				120.7,164.3 120.7,163.7 121.3,163.7 121.3,191.6 88.4,191.6 88.4,171.5 98.4,163.1 121.3,163.1 121.3,163.7 			"/>
		</g>
		<g>
			<polygon class="st6" points="98.6,171.7 98.6,163.7 89,171.7 			"/>
		</g>
		<g>
			<polygon class="st0" points="98.6,171.7 98,171.7 98,165 90.6,171.2 98.6,171.2 98.6,171.7 98,171.7 98.6,171.7 98.6,172.3 
				88.4,172.3 88.4,171.5 98.4,163.1 99.2,163.1 99.2,172.3 98.6,172.3 			"/>
		</g>
		<g>
			<polyline class="st0" points="93.8,183.6 115.2,183.6 115.2,185.2 93.8,185.2 			"/>
		</g>
		<g>
			<polyline class="st0" points="94.5,179.7 115.2,179.7 115.2,181.3 94.5,181.3 			"/>
		</g>
		<g>
			<polyline class="st0" points="94.5,175.4 115.2,175.4 115.2,177 94.5,177 			"/>
		</g>
	</g>
	<g>
		<polygon class="st0" points="192.3,46.1 192.3,43.4 191.1,43.4 191.1,46.1 188.5,46.1 188.5,47.3 191.1,47.3 191.1,49.9 
			192.3,49.9 192.3,47.3 195,47.3 195,46.1 		"/>
	</g>
	<g>
		<g>
			<circle class="st7" cx="94.3" cy="134.2" r="14.3"/>
		</g>
		<g>
			<path class="st0" d="M108.6,134.2H108c0,3.8-1.5,7.2-4,9.7c-2.5,2.5-5.9,4-9.7,4c-3.8,0-7.2-1.5-9.7-4c-2.5-2.5-4-5.9-4-9.7
				c0-3.8,1.5-7.2,4-9.7c2.5-2.5,5.9-4,9.7-4c3.8,0,7.2,1.5,9.7,4c2.5,2.5,4,5.9,4,9.7H108.6h0.6c0-8.3-6.7-15-15-15
				c-8.3,0-15,6.7-15,15c0,8.3,6.7,15,15,15c8.3,0,15-6.7,15-15H108.6z"/>
		</g>
		<g>
			<circle class="st8" cx="94.3" cy="134.2" r="11"/>
		</g>
		<g>
			<path class="st0" d="M93.4,141.2v-1.6c-1.2-0.1-2.3-0.4-2.9-0.7l0.5-2c0.7,0.4,1.7,0.8,2.9,0.8c1,0,1.7-0.4,1.7-1.1
				c0-0.7-0.6-1.1-1.8-1.5c-1.8-0.6-3.1-1.5-3.1-3.1c0-1.5,1.1-2.7,2.9-3.1v-1.6h1.7v1.5c1.2,0.1,1.9,0.3,2.5,0.6l-0.5,1.9
				c-0.4-0.2-1.2-0.6-2.5-0.6c-1.1,0-1.5,0.5-1.5,1c0,0.6,0.6,0.9,2.1,1.5c2,0.7,2.9,1.7,2.9,3.2c0,1.5-1.1,2.8-3.1,3.2v1.8H93.4z"
				/>
		</g>
	</g>
	<g>
		<g>
			<circle class="st5" cx="295.3" cy="104.3" r="19.9"/>
		</g>
		<g>
			<path class="st9" d="M315.3,104.3h-19.9V84.4C306.3,84.4,315.3,93.3,315.3,104.3z"/>
		</g>
		<g>
			<path class="st10" d="M315.3,104.3h-0.6c0,5.3-2.2,10.2-5.7,13.7c-3.5,3.5-8.3,5.7-13.7,5.7c-5.3,0-10.2-2.2-13.7-5.7
				c-3.5-3.5-5.7-8.3-5.7-13.7c0-5.3,2.2-10.2,5.7-13.7c3.5-3.5,8.3-5.7,13.7-5.7c5.3,0,10.2,2.2,13.7,5.7c3.5,3.5,5.7,8.3,5.7,13.7
				H315.3h0.6c0-11.3-9.2-20.5-20.5-20.5c-11.3,0-20.5,9.2-20.5,20.5c0,11.3,9.2,20.5,20.5,20.5c11.3,0,20.5-9.2,20.5-20.5H315.3z"
				/>
		</g>
	</g>
	<g>
		<g>
			<path class="st10" d="M322.7,169.8v-7.1c0-0.8,0.3-1.6,0.9-2.2c0.6-0.6,1.3-0.9,2.2-0.9h14.7c0.8,0,1.6,0.3,2.2,0.9
				c0.6,0.6,0.9,1.3,0.9,2.2v7.1h1.2l0-7.1c0-2.4-1.9-4.3-4.3-4.3h-14.7c-2.4,0-4.3,1.9-4.3,4.3v7.1H322.7L322.7,169.8z"/>
		</g>
		<g>
			<rect x="306.5" y="165.2" class="st11" width="52.9" height="40.3"/>
		</g>
		<g>
			<polygon class="st10" points="359.4,205.5 359.4,204.9 307.1,204.9 307.1,165.8 358.7,165.8 358.7,205.5 359.4,205.5 
				359.4,204.9 359.4,205.5 360,205.5 360,164.6 305.9,164.6 305.9,206.1 360,206.1 360,205.5 			"/>
		</g>
		<g>
			<rect x="307.1" y="165.7" class="st12" width="51.7" height="19.1"/>
		</g>
		<g>
			<rect x="316.4" y="179.9" class="st6" width="5.3" height="9.7"/>
		</g>
		<g>
			<rect x="344.4" y="179.9" class="st6" width="5.3" height="9.7"/>
		</g>
	</g>
	<g>
		<g>
			<path class="st1" d="M286.4,202.9H164.2c-4.6,0-8.3-3.7-8.3-8.3v-82.1c0-4.6,3.7-8.3,8.3-8.3h122.2c4.6,0,8.3,3.7,8.3,8.3v82.1
				C294.7,199.2,291,202.9,286.4,202.9z"/>
		</g>
		<g>
			<path class="st0" d="M286.4,202.9v-0.7H164.2c-2.1,0-4-0.8-5.4-2.2c-1.4-1.4-2.2-3.3-2.2-5.4v-82.1c0-2.1,0.8-4,2.2-5.4
				c1.4-1.4,3.3-2.2,5.4-2.2h122.2c2.1,0,4,0.8,5.4,2.2c1.4,1.4,2.2,3.3,2.2,5.4v82.1c0,2.1-0.8,4-2.2,5.4c-1.4,1.4-3.3,2.2-5.4,2.2
				V202.9v0.7c4.9,0,8.9-4,8.9-8.9v-82.1c0-4.9-4-8.9-8.9-8.9H164.2c-4.9,0-8.9,4-8.9,8.9v82.1c0,4.9,4,8.9,8.9,8.9h122.2V202.9z"/>
		</g>
		<g>
			<rect x="162.8" y="111.7" class="st13" width="125.9" height="79.6"/>
		</g>
		<g>
			<path class="st14" d="M306.2,205.3H145.1c-4.8,0-8.8-3.9-8.8-8.8V196h178.6v0.6C314.9,201.4,311,205.3,306.2,205.3z"/>
		</g>
		<g>
			<path class="st0" d="M306.2,205v-0.7H145.1c-2.2,0-4.3-0.9-5.7-2.4c-1.5-1.5-2.4-3.5-2.4-5.7v-0.6h-0.7v0.7h178.6v-0.7h-0.7v0.6
				c0,2.2-0.9,4.3-2.4,5.7c-1.5,1.5-3.5,2.4-5.7,2.4V205v0.7c5.2,0,9.4-4.2,9.4-9.4v-0.6V195H135.7v1.2c0,5.2,4.2,9.4,9.4,9.4h161.1
				V205z"/>
		</g>
		<g>
			<path class="st15" d="M306.2,205H145.1c-2.2,0-6.8-2.5-6.8-2.5l173.5-0.4C311.9,202.1,308.7,205,306.2,205z"/>
		</g>
		<g>
			<path class="st16" d="M237.3,200.3h-24.2c-1.3,0-2.3-1-2.3-2.3v-1.7h28.8v1.7C239.6,199.3,238.6,200.3,237.3,200.3z"/>
		</g>
		<g>
			<circle class="st17" cx="225.4" cy="108.4" r="1.3"/>
		</g>
	</g>
	<g>
		<g>
			<polygon class="st0" points="208.5,66 204.4,69.8 205.8,70.5 198.7,85.3 191.9,72.7 183.8,88 178.6,80.8 173.1,89 167.4,90 
				167.6,91.2 173.8,90.1 178.7,83 183.9,90.4 191.9,75.3 198.8,88.1 206.9,71 208.2,71.6 			"/>
		</g>
	</g>
	<g>
		<g>
			<rect x="364.8" y="188.8" class="st5" width="7.6" height="16.2"/>
		</g>
		<g>
			<rect x="375.9" y="184.5" class="st5" width="7.6" height="20.5"/>
		</g>
		<g>
			<rect x="386.3" y="185.4" class="st5" width="7.6" height="19.6"/>
		</g>
		<g>
			<rect x="396.6" y="177.7" class="st5" width="7.6" height="27.4"/>
		</g>
		<g>
			<rect x="406.9" y="167.5" class="st5" width="7.6" height="37.5"/>
		</g>
		<g>
			<line class="st7" x1="363.8" y1="186.8" x2="412.8" y2="160"/>
		</g>
		<g>
			<polyline class="st0" points="364.1,187.3 413.1,160.6 412.5,159.5 363.5,186.2 			"/>
		</g>
	</g>
	<g>
		<g>
			<path class="st0" d="M77,170.9l-24.9,0.2c-0.5,0-0.8-0.4-0.8-0.8l0,0c0-0.5,0.4-0.8,0.8-0.8l24.9-0.2c0.5,0,0.8,0.4,0.8,0.8l0,0
				C77.9,170.5,77.5,170.9,77,170.9z"/>
		</g>
		<g>
			<polygon class="st9" points="55.3,195.4 63.9,191.1 74.8,196.8 76.4,201.3 76.8,203.9 76.8,204.8 75.9,204.8 53.5,204.9 
				52.5,204 52.5,201.9 54.3,197.2 			"/>
		</g>
		<g>
			<path class="st9" d="M52.6,174.4l22.6,3.8c0,0-2.2,4.1-3.4,5.2c-1.2,1.2-4.8,3.8-4.8,3.8l-4.5,0c0,0-5.1-2.9-6.7-5.5
				C54.2,179.1,52.6,174.4,52.6,174.4z"/>
		</g>
		<g>
			<g>
				<path class="st0" d="M67,187.2l0.2,0.4c2.5-1.3,5.1-3.7,7-6.7c1.6-2.5,2.7-5.6,2.8-8.8c0-0.5-0.3-1-0.7-1.3
					c-0.2-0.1-0.5-0.2-0.8-0.2l-22.4,0.1c-0.5,0-0.9,0.3-1.2,0.7c-0.2,0.2-0.2,0.5-0.2,0.8c0.1,3.3,1.3,6.3,2.9,8.8
					c1.6,2.5,3.8,4.6,5.9,5.9c0.4,0.2,0.8,0.5,1.2,0.7l0,0c0.1,0.1,0.2,0.2,0.2,0.3c0,0.1,0,0.2-0.1,0.3c0,0.1-0.1,0.1-0.2,0.2
					c-2.5,1.3-5.1,3.7-7,6.7c-1.6,2.5-2.7,5.6-2.8,8.8c0,0.5,0.3,1,0.7,1.3c0.2,0.1,0.5,0.2,0.8,0.2l22.4-0.1c0.5,0,0.9-0.3,1.2-0.7
					c0.2-0.2,0.2-0.5,0.2-0.8c-0.1-3.3-1.3-6.3-2.9-8.8c-1.6-2.5-3.8-4.6-5.9-5.9c-0.4-0.2-0.8-0.5-1.2-0.7l0,0
					c-0.1-0.1-0.2-0.2-0.2-0.3c0-0.1,0-0.2,0.1-0.3c0-0.1,0.1-0.1,0.2-0.2L67,187.2l-0.2-0.4c-0.2,0.1-0.4,0.3-0.6,0.5
					c-0.2,0.3-0.3,0.7-0.2,1c0.1,0.4,0.3,0.7,0.6,0.9c0,0,0.1,0,0.1,0.1c0.4,0.2,0.7,0.4,1.1,0.6c2,1.3,4,3.2,5.6,5.6
					c1.6,2.4,2.6,5.3,2.8,8.3c0,0.1,0,0.2-0.1,0.2c-0.1,0.1-0.2,0.2-0.4,0.2l-22.4,0.1c-0.1,0-0.2,0-0.2-0.1
					c-0.1-0.1-0.2-0.2-0.2-0.4c0.1-3.1,1.1-5.9,2.7-8.3c1.8-2.9,4.3-5.1,6.6-6.3c0.2-0.1,0.4-0.3,0.6-0.5c0.2-0.3,0.3-0.7,0.2-1
					c-0.1-0.4-0.3-0.7-0.6-0.9c0,0-0.1,0-0.1-0.1c-0.4-0.2-0.7-0.4-1.1-0.6c-2-1.3-4-3.2-5.6-5.6c-1.6-2.4-2.6-5.3-2.8-8.3
					c0-0.1,0-0.2,0.1-0.3c0.1-0.1,0.2-0.2,0.4-0.2l22.4-0.1c0.1,0,0.2,0,0.2,0.1c0.1,0.1,0.2,0.2,0.2,0.4c-0.1,3.1-1.1,5.9-2.7,8.3
					c-1.8,2.9-4.3,5.1-6.6,6.3L67,187.2z"/>
			</g>
		</g>
		<g>
			<path class="st0" d="M77.3,206.9l-24.9,0.2c-0.5,0-0.8-0.4-0.8-0.8l0,0c0-0.5,0.4-0.8,0.8-0.8l24.9-0.2c0.5,0,0.8,0.4,0.8,0.8
				l0,0C78.1,206.5,77.8,206.8,77.3,206.9z"/>
		</g>
	</g>
	<g>
		<polygon class="st0" points="330.3,91.9 330.3,89.3 329.1,89.3 329.1,91.9 326.5,91.9 326.5,93.1 329.1,93.1 329.1,95.7 
			330.3,95.7 330.3,93.1 333,93.1 333,91.9 		"/>
	</g>
	<g>
		<g>
			<g>
				<polygon class="st4" points="233.7,116.5 222.5,116.5 215.6,189 240.5,189 				"/>
				<path class="st10" d="M241.2,189.5H215l7-73.6h12.2L241.2,189.5z M216.3,188.4h23.6l-6.8-71.3H223L216.3,188.4z"/>
			</g>
			<g>
				<polygon class="st10" points="233.7,116.5 233.7,116.2 222.2,116.2 215.3,189.2 240.8,189.2 233.9,116.2 233.7,116.2 
					233.7,116.5 233.4,116.5 240.2,188.7 215.9,188.7 222.7,116.8 233.7,116.8 233.7,116.5 233.4,116.5 				"/>
			</g>
		</g>
		<g>
			<g>
				<path class="st18" d="M212.7,123.5c0,0-5.4-9-1.5-16.1c4-7.1,15.8-4,15.8-4l-3.3,10.2c0,0-4.4-1.5-7.7,0.3
					C212.8,115.7,212.7,123.5,212.7,123.5z"/>
			</g>
			<g>
				<path class="st18" d="M242.9,123.5c0,0,5.4-9,1.5-16.1c-4-7.1-15.8-4-15.8-4l3.3,10.2c0,0,4.4-1.5,7.7,0.3
					C242.9,115.7,242.9,123.5,242.9,123.5z"/>
			</g>
			<g>
				<path class="st19" d="M212.7,123.8c0,0-5.4-9-1.5-16.1c4-7.1,15.8-4,15.8-4l-1.7,1c0,0-9.3-1.3-13.1,3.6
					C209.2,112.4,212.7,123.8,212.7,123.8z"/>
			</g>
			<g>
				<path class="st19" d="M243,123.8c0,0,5.4-9,1.5-16.1c-4-7.1-15.8-4-15.8-4l1.7,1c0,0,9.3-1.3,13.1,3.6
					C246.6,112.4,243,123.8,243,123.8z"/>
			</g>
			<g>
				<path class="st10" d="M242.9,123.5l0.5,0.3c0,0,3-4.9,3-10.5c0-2-0.4-4.2-1.5-6.2c-1.1-2-2.9-3.3-4.8-4c-1.9-0.7-4-1-5.8-1
					c-3.2,0-5.9,0.7-5.9,0.7l-0.6,0.2l3.7,11.4l0.6-0.2l0,0c0.2-0.1,1.7-0.6,3.6-0.5c1.2,0,2.5,0.2,3.6,0.8c0.7,0.4,1.2,1.1,1.7,2
					c0.7,1.4,1,3.2,1.2,4.6c0.1,0.7,0.1,1.3,0.2,1.8c0,0.2,0,0.4,0,0.5c0,0.1,0,0.2,0,0.2l0,2.2l1.1-1.9L242.9,123.5l0.6,0
					c0,0,0-2-0.4-4.2c-0.2-1.1-0.5-2.3-1-3.4c-0.5-1.1-1.2-2-2.2-2.5c-1.4-0.7-2.9-1-4.2-1c-2.2,0-4,0.6-4,0.6l0.2,0.6l0.6-0.2
					l-3.3-10.2l-0.6,0.2l0.2,0.6c0,0,0,0,0.1,0c0.5-0.1,2.8-0.6,5.5-0.6c1.8,0,3.7,0.2,5.4,0.9c1.7,0.7,3.2,1.7,4.2,3.5
					c1,1.8,1.4,3.7,1.4,5.6c0,2.6-0.7,5-1.4,6.9c-0.4,0.9-0.7,1.7-1,2.2c-0.1,0.3-0.2,0.5-0.3,0.6l-0.1,0.2l0,0L242.9,123.5l0.6,0
					L242.9,123.5z"/>
			</g>
			<g>
				<path class="st10" d="M212.7,123.5l0.5-0.3l0,0c-0.3-0.5-2.8-5-2.8-9.8c0-1.9,0.4-3.8,1.4-5.6c1-1.7,2.5-2.8,4.2-3.5
					c1.7-0.7,3.6-0.9,5.4-0.9c1.5,0,2.9,0.2,3.9,0.3c0.5,0.1,0.9,0.2,1.2,0.2c0.1,0,0.2,0.1,0.3,0.1c0.1,0,0.1,0,0.1,0l0.2-0.6
					l-0.6-0.2l-3.3,10.2l0.6,0.2l0.2-0.6c0,0-1.8-0.6-4-0.6c-1.3,0-2.8,0.2-4.2,1c-1,0.5-1.7,1.5-2.2,2.5c-0.8,1.6-1.1,3.5-1.3,5
					c-0.2,1.5-0.2,2.6-0.2,2.6L212.7,123.5l0.5-0.3L212.7,123.5l0.6,0l0-0.1c0-0.4,0.1-2.3,0.5-4.3c0.2-1,0.5-2,0.9-2.8
					c0.4-0.8,1-1.5,1.6-1.8c1.1-0.6,2.4-0.8,3.6-0.8c1,0,1.9,0.1,2.6,0.3c0.3,0.1,0.6,0.1,0.8,0.2c0.1,0,0.2,0,0.2,0.1l0.1,0l0,0
					l0.6,0.2l3.7-11.4l-0.6-0.2c0,0-2.6-0.7-5.9-0.7c-1.9,0-3.9,0.2-5.8,1c-1.9,0.7-3.7,2-4.8,4c-1.1,2-1.5,4.2-1.5,6.2
					c0,5.6,3,10.4,3,10.5l1.1,1.9l0-2.2L212.7,123.5z"/>
			</g>
			<g>
				<path class="st20" d="M222.3,116.1c-4.2-12.3-10.8-46.2,5.6-60c20,18,6,60,6,60S227.5,119.1,222.3,116.1z"/>
			</g>
			<g>
				<path class="st4" d="M224,116.1c-3.9-11.4-9.8-41.4,2.4-56.8c0.5-0.6-4.5,12.5-4.8,27.8c-0.3,13.6,4,29.6,4,29.6
					C225,116.6,224.5,116.4,224,116.1z"/>
			</g>
			<g>
				<path class="st21" d="M222.5,115.9c-0.4-1.1-1-3.3-1-3.3c1.3,0.5,6.8,2.5,13.2-0.1l-1,3.4C233.6,115.9,227.5,118.8,222.5,115.9z
					"/>
			</g>
			<g>
				<path class="st18" d="M218.9,71.8c1.5-6,4.4-11.9,8.9-15.7c4.7,4.2,7.5,9.7,9,15.7C227.8,68.5,218.9,71.8,218.9,71.8z"/>
			</g>
			<g>
				<path class="st19" d="M220.7,71.3c1.5-6,2.6-11.3,7.1-15.2c-3.2,6-4,12.8-4.3,14.5C221.8,70.9,220.7,71.3,220.7,71.3z"/>
			</g>
			<g>
				<circle class="st22" cx="227.8" cy="83.2" r="4.7"/>
			</g>
			<g>
				<path class="st23" d="M232.4,83.2h-0.5c0,1.1-0.5,2.2-1.2,2.9c-0.8,0.7-1.8,1.2-2.9,1.2c-1.1,0-2.2-0.5-2.9-1.2
					c-0.7-0.8-1.2-1.8-1.2-2.9c0-1.1,0.5-2.2,1.2-2.9c0.8-0.7,1.8-1.2,2.9-1.2c1.1,0,2.2,0.5,2.9,1.2c0.7,0.8,1.2,1.8,1.2,2.9H232.4
					h0.5c0-2.9-2.3-5.2-5.2-5.2c-2.9,0-5.2,2.3-5.2,5.2c0,2.9,2.3,5.2,5.2,5.2c2.9,0,5.2-2.3,5.2-5.2H232.4z"/>
			</g>
			<g>
				<path class="st21" d="M220.8,109.9c0.4,0.2,1,0.5,1.8,0.7c1.4,0.5,3.4,1,5.3,1c3.4,0,6.2-1.1,7.5-1.7l0.3-1.3l0,0
					c-0.2,0.1-3.5,2-7.7,2c-1.8,0-3.6-0.5-5-1c-0.7-0.2-1.3-0.5-1.7-0.7c-0.2-0.1-0.4-0.2-0.5-0.2c-0.1,0-0.1,0-0.1-0.1l0,0
					l-0.1-0.1L220.8,109.9z"/>
			</g>
			<g>
				<path class="st10" d="M222.3,116.1l0.6-0.2c-2.1-6.2-4.9-18.2-4.9-30.1c0-5.7,0.6-11.4,2.2-16.4c1.6-5.1,4.2-9.5,8-12.8
					l-0.4-0.5l-0.4,0.5c4.1,3.7,6.7,8.4,8.3,13.5c1.6,5.2,2.2,10.8,2.2,16.3c0,7.7-1.2,15.1-2.4,20.6c-0.6,2.7-1.2,5-1.6,6.6
					c-0.2,0.8-0.4,1.4-0.5,1.8c-0.1,0.2-0.1,0.4-0.1,0.5s-0.1,0.2-0.1,0.2l0.6,0.2l-0.3-0.6l0,0c-0.3,0.1-2.9,1.3-5.9,1.3
					c-1.6,0-3.4-0.3-5-1.3L222.3,116.1l0.6-0.2L222.3,116.1l-0.3,0.5c1.9,1.1,3.8,1.4,5.6,1.4c3.6,0,6.4-1.4,6.5-1.4l0.2-0.1
					l0.1-0.3c0,0,4.8-14.4,4.8-30c0-5.6-0.6-11.3-2.3-16.7c-1.7-5.3-4.4-10.2-8.7-14.1l-0.4-0.4l-0.4,0.4c-4.1,3.5-6.8,8.2-8.4,13.4
					c-1.6,5.2-2.3,11-2.3,16.8c0,12.1,2.8,24.2,4.9,30.5l0.1,0.2l0.2,0.1L222.3,116.1z"/>
			</g>
		</g>
		<g>
			<g>
				<path class="st4" d="M226.4,192.5c0,0.8,0.1,1.6,0.3,2.3l74.2,0.3c0.8-1.2,1.2-2.5,1.2-4c0-4-3.2-7.2-7.2-7.2
					c-1.9,0-3.6,0.7-4.9,1.9c0.1-0.6,0.2-1.3,0.2-1.9c0-4.8-3.9-8.6-8.6-8.6c-0.1,0-0.1,0-0.2,0c-1.1-2-3.3-3.4-5.8-3.4
					c-0.6,0-1.3,0.1-1.8,0.3c0.3-0.6,0.5-1.3,0.5-2.1c0-2.6-2.1-4.7-4.7-4.7c-2.6,0-4.7,2.1-4.7,4.7c0,0.7,0.1,1.3,0.4,1.9
					c-0.3,0-0.6-0.1-1-0.1c-4.7,0-8.5,3.8-8.5,8.5c0,0.2,0,0.3,0,0.5c-0.9-0.7-2-1.1-3.1-1.1c-1.4,0-2.7,0.6-3.6,1.5
					c-0.3-2.6-2.5-4.6-5.2-4.6c-2.8,0-4.9,2.3-5.2,5.2c-0.1,1.1,0.1,1.6,0.2,1.8c-1-0.4-2.1-0.6-3.2-0.6
					C230.6,183.1,226.4,187.3,226.4,192.5z"/>
				<path class="st10" d="M301.2,195.7l-0.3,0l-74.7-0.3l-0.1-0.4c-0.2-0.8-0.3-1.6-0.3-2.4c0-5.5,4.5-10,10-10
					c0.8,0,1.7,0.1,2.5,0.3c0-0.3,0-0.6,0-1.1c0.3-3.3,2.7-5.8,5.7-5.8c2.6,0,4.9,1.7,5.6,4.2c0.9-0.6,2.1-1,3.2-1
					c0.9,0,1.8,0.2,2.6,0.6c0.3-4.8,4.3-8.6,9.2-8.6c-0.1-0.4-0.1-0.8-0.1-1.2c0-2.9,2.4-5.2,5.2-5.2c2.9,0,5.2,2.4,5.2,5.2
					c0,0.4-0.1,0.9-0.2,1.3c0.3,0,0.6-0.1,0.9-0.1c2.5,0,4.8,1.3,6.1,3.4c5,0.1,9.1,4.2,9.1,9.2c0,0.2,0,0.4,0,0.6
					c1.2-0.8,2.6-1.2,4.1-1.2c4.3,0,7.8,3.5,7.8,7.8c0,1.6-0.5,3.1-1.3,4.4L301.2,195.7z M227.2,194.2l73.4,0.3c0.6-1,1-2.2,1-3.5
					c0-3.7-3-6.7-6.7-6.7c-1.7,0-3.3,0.6-4.5,1.8l-1.4,1.3l0.4-1.8c0.1-0.6,0.2-1.2,0.2-1.8c0-4.4-3.6-8.1-8.1-8.1l-0.5,0l-0.2-0.3
					c-1.1-1.9-3.1-3.1-5.2-3.1c-0.6,0-1.1,0.1-1.7,0.2l-1.3,0.4l0.6-1.2c0.3-0.6,0.4-1.2,0.4-1.8c0-2.2-1.8-4.1-4.1-4.1
					c-2.2,0-4.1,1.8-4.1,4.1c0,0.6,0.1,1.1,0.3,1.6l0.4,0.9l-1-0.1c-0.3,0-0.6-0.1-0.9-0.1c-4.4,0-7.9,3.6-7.9,7.9
					c0,0.2,0,0.3,0,0.5l0.1,1.3l-1-0.8c-0.8-0.6-1.8-0.9-2.8-0.9c-1.2,0-2.3,0.5-3.2,1.3l-0.9,0.8l-0.1-1.2
					c-0.3-2.3-2.2-4.1-4.6-4.1c-2.4,0-4.3,2-4.6,4.7c0,0.7,0,1.1,0.1,1.4c0,0.1,0,0.2,0.1,0.3l0.1,0.9l-0.8-0.3c-1-0.3-2-0.5-3-0.5
					c-4.9,0-8.8,4-8.8,8.8C227,193.1,227.1,193.6,227.2,194.2z"/>
			</g>
		</g>
		<g>
			<g>
				<g>
					<path class="st4" d="M228.9,179.3c-1.5,0-2.9,0.3-4.3,0.7c0-0.3,0.3-1.1,0.2-2.5c-0.3-3.9-3.2-7-6.9-7c-3.6,0-6.5,2.7-6.9,6.2
						c-1.3-1.2-2.9-1.9-4.8-1.9c-1.6,0-3,0.5-4.2,1.4c0-0.2,0-0.5,0-0.7c0-6.3-5.1-11.4-11.4-11.4c-0.4,0-0.9,0-1.3,0.1
						c0.3-0.8,0.5-1.6,0.5-2.5c0-3.4-2.8-6.2-6.2-6.2c-3.4,0-6.2,2.8-6.2,6.2c0,1,0.2,1.9,0.7,2.8c-0.8-0.2-1.6-0.4-2.5-0.4
						c-3.3,0-6.2,1.8-7.7,4.5c-0.1,0-0.1,0-0.2,0c-6.4,0-11.5,5.2-11.5,11.5c0,0.9,0.1,1.7,0.3,2.6c-1.7-1.6-4-2.6-6.5-2.6
						c-5.3,0-9.7,4.3-9.7,9.7c0,2,0.6,3.9,1.7,5.4l99.1-0.5c0.2-1,1-2.3,1-3.4C242,184.7,235.8,179.3,228.9,179.3z"/>
					<path class="st10" d="M141.6,196l-0.2-0.3c-1.1-1.7-1.8-3.7-1.8-5.7c0-5.7,4.6-10.3,10.3-10.3c2.1,0,4,0.6,5.7,1.8
						c0-0.4-0.1-0.8-0.1-1.2c0-6.7,5.4-12.1,12-12.1c1.7-2.8,4.7-4.5,8-4.5c0.5,0,1,0,1.5,0.1c-0.2-0.6-0.3-1.3-0.3-2
						c0-3.8,3.1-6.8,6.8-6.8c3.8,0,6.8,3.1,6.8,6.8c0,0.6-0.1,1.2-0.3,1.8c0.1,0,0.3,0,0.4,0c6.5,0,11.7,5.2,12,11.6
						c1.1-0.6,2.3-0.9,3.6-0.9c1.6,0,3.1,0.5,4.4,1.4c0.8-3.3,3.8-5.7,7.3-5.7c4,0,7.1,3.1,7.5,7.5c0,0.7,0,1.2,0,1.7
						c1.1-0.3,2.3-0.5,3.5-0.5c7.4,0,13.7,5.9,13.7,12.8c0,0.8-0.3,1.6-0.6,2.4c-0.2,0.4-0.3,0.8-0.4,1.1l-0.1,0.4L141.6,196z
						 M149.9,180.9c-5,0-9.1,4.1-9.1,9.1c0,1.7,0.5,3.4,1.4,4.8l98.4-0.4c0.1-0.3,0.2-0.5,0.3-0.8c0.3-0.7,0.5-1.4,0.5-2
						c0-6.3-5.8-11.7-12.6-11.7c-1.4,0-2.8,0.2-4.1,0.7l-0.8,0.3l0.1-0.9c0-0.1,0-0.2,0.1-0.4c0.1-0.4,0.2-1,0.1-2
						c-0.3-3.7-3-6.4-6.3-6.4c-3.3,0-6,2.4-6.3,5.7l-0.1,1.2l-0.9-0.8c-1.2-1.1-2.8-1.8-4.4-1.8c-1.4,0-2.7,0.4-3.8,1.3l-1,0.8
						l0.1-1.3c0-0.2,0-0.4,0-0.6c0-6-4.8-10.8-10.8-10.8c-0.4,0-0.8,0-1.2,0.1l-1,0.1l0.4-0.9c0.3-0.7,0.5-1.5,0.5-2.3
						c0-3.1-2.5-5.6-5.6-5.6c-3.1,0-5.6,2.5-5.6,5.6c0,0.9,0.2,1.7,0.6,2.5l0.6,1.2l-1.3-0.4c-0.8-0.2-1.5-0.3-2.3-0.3
						c-3,0-5.7,1.6-7.2,4.2l-0.2,0.3l-0.6,0c-6,0-11,4.9-11,11c0,0.8,0.1,1.6,0.3,2.4l0.4,1.8l-1.4-1.3
						C154.4,181.8,152.2,180.9,149.9,180.9z"/>
				</g>
			</g>
			<g>
				<g>
					<g>
						<path class="st4" d="M199.3,181.1c0-3.6,3-6.6,6.6-6.6c3.6,0,6.6,3,6.6,6.6"/>
					</g>
				</g>
				<g>
					<g>
						<path class="st10" d="M192.9,188.2C192.9,188.2,192.8,188.2,192.9,188.2c-1.5-2.9-4.4-4.7-7.7-4.7c-4.1,0-7.7,2.9-8.4,7
							c-0.1,0.5-0.1,1-0.1,1.6v0.4h0.9h0.4V192c0-0.4,0-0.9,0.1-1.3c0.6-3.4,3.6-5.9,7.1-5.9c2.9,0,5.5,1.7,6.7,4.4l0,0.3l0.1,0
							l0,0.1l0.2-0.1l0,0c0.2,0,0.4,0,0.6,0c2.2,0,4.2,1.3,5.1,3.3l0.1,0.2l0.1,0.2l8.6,0l0-0.9l0-0.4l-7.8,0
							C197.8,189.6,195.4,188.2,192.9,188.2z"/>
					</g>
					<g>
						<path class="st10" d="M180,174.1l0.1,0.3l0,0.1l0,0l0,0l0,0l0.3,0c0.1,0,0.2,0,0.3,0c1.3,0,2.5,0.8,3,1.9l0.2,0.4l0.4-0.2
							l0.5-0.2l0.4-0.2l-0.2-0.4c-0.7-1.6-2.3-2.7-4.1-2.7c-1-1.8-2.9-2.9-4.9-2.9c-2.7,0-5,1.9-5.5,4.6c-0.1,0.3-0.1,0.7-0.1,1v0.4
							h0.9h0.4v-0.4c0-0.3,0-0.5,0.1-0.8c0.4-2.1,2.2-3.5,4.3-3.5C177.8,171.4,179.3,172.5,180,174.1z"/>
					</g>
					<g>
						<path class="st10" d="M205.9,173.9c-4,0-7.3,3.3-7.3,7.3v0.4h0.9h0.4v-0.4c0-1.6,0.7-3.1,1.7-4.2c1.1-1.1,2.6-1.7,4.2-1.7
							c1.6,0,3.1,0.7,4.2,1.7c1.1,1.1,1.7,2.6,1.7,4.2v0.4h0.9h0.4v-0.4C213.2,177.1,209.9,173.9,205.9,173.9z"/>
					</g>
					<g>
						<path class="st10" d="M179.3,167l0.3,0.3l0.3-0.3l0.2-0.3l0.3-0.3l-0.3-0.3c-1.3-1.1-2-2.6-2-4.3c0-1.6,0.6-3,1.6-4
							c1-1,2.4-1.6,4-1.6c1.6,0,3,0.6,4,1.6c1,1,1.6,2.4,1.6,4c0,1.5-0.6,2.9-1.6,3.9l-0.3,0.3l0.5,0.5l0.3,0.3l0.3-0.3
							c1.2-1.3,1.9-2.9,1.9-4.7c0-3.7-3-6.7-6.7-6.7c-3.7,0-6.7,3-6.7,6.7C176.9,163.8,177.7,165.7,179.3,167z"/>
					</g>
					<g>
						<path class="st10" d="M172.4,170.6l0.3-0.7l0.2-0.4l-0.4-0.2c-1.6-0.8-3.4-1.2-5.2-1.2c-0.1,0-0.2,0-0.3,0h0
							c-3.2,0.1-6.1,1.4-8.3,3.7c-2.1,2.2-3.3,5.1-3.3,8.1c0,0.1,0,0.2,0,0.3c0.1,2.5,0.9,4.8,2.4,6.8l0.2,0.3l0.3-0.2l0.3-0.2
							l0.3-0.2l-0.2-0.3c-1.3-1.8-2.1-3.9-2.1-6.2c0-0.1,0-0.2,0-0.3c0-2.8,1-5.4,2.9-7.4c2-2.1,4.6-3.3,7.5-3.3c0.1,0,0.2,0,0.3,0
							c1.6,0,3.2,0.4,4.6,1.1L172.4,170.6z"/>
					</g>
					<g>
						<path class="st10" d="M278,184.4c-0.7-4.1-4.3-7-8.4-7c-3.2,0-6.2,1.8-7.6,4.7c0,0,0,0,0,0c-2.6,0-5.1,1.5-6.2,3.9l-0.1,0.2
							l0.1,0.2l0.3,0.5l0.4,0.6l0.4-0.8c0.9-2,2.9-3.3,5.1-3.3c0.2,0,0.4,0,0.6,0l0,0l0.2,0.1l0-0.1l0.1,0l0-0.3
							c1.1-2.7,3.8-4.4,6.7-4.4c3.5,0,6.5,2.5,7.1,5.9c0.1,0.4,0.1,0.9,0.1,1.3v0.4h0.9h0.4V186C278.1,185.5,278.1,184.9,278,184.4z
							"/>
					</g>
				</g>
			</g>
		</g>
	</g>
</g>
</svg>
