<?xml version="1.0" encoding="utf-8"?>
<!-- Generator: Adobe Illustrator 19.1.1, SVG Export Plug-In . SVG Version: 6.00 Build 0)  -->
<svg version="1.1" id="Layer_1" xmlns="http://www.w3.org/2000/svg" xmlns:xlink="http://www.w3.org/1999/xlink" x="0px" y="0px"
	 viewBox="0 0 450 250" style="enable-background:new 0 0 450 250;" xml:space="preserve">
<style type="text/css">
	.st0{fill:#FFFFFF;}
	.st1{fill:#333637;}
	.st2{fill:#838587;}
	.st3{fill:#FFB270;}
	.st4{fill:#939597;}
	.st5{fill:#FFF8EC;}
	.st6{fill:#8CBFDE;}
	.st7{fill:#F3D56D;}
	.st8{fill:#E5AD53;}
	.st9{fill:#333737;}
	.st10{fill:#FDEE97;}
	.st11{fill:#C66B42;}
	.st12{fill:#D4D3D5;}
	.st13{fill:#FFF0B3;}
	.st14{fill:#C9C8CA;}
	.st15{fill:#7E8792;}
	.st16{fill:#F9F9FA;}
	.st17{fill:#696A6C;}
	.st18{fill:#393C3D;}
	.st19{fill:#E1E1E2;}
	.st20{fill:#898A8C;}
	.st21{fill:#99C6EC;}
	.st22{fill:#616265;}
	.st23{fill:#F56E6E;}
	.st24{fill:#F99298;}
	.st25{fill:#C95248;}
	.st26{fill:#232727;}
</style>
<g>
	<g>
		<g>
			<rect x="114" y="165.8" class="st0" width="54.1" height="82.5"/>
			<path class="st1" d="M168.7,248.9h-55.3v-83.7h55.3V248.9z M114.6,247.7h52.9v-81.3h-52.9V247.7z"/>
		</g>
		<g>
			<rect x="114.6" y="166.4" class="st2" width="52.9" height="5.6"/>
		</g>
		<g>
			<rect x="146.8" y="179.1" class="st3" width="13.4" height="24"/>
		</g>
		<g>
			<g>
				<rect x="120.5" y="179.1" class="st4" width="22.4" height="1.6"/>
			</g>
			<g>
				<rect x="120.5" y="185.3" class="st4" width="22.4" height="1.6"/>
			</g>
			<g>
				<rect x="120.5" y="191.5" class="st4" width="22.4" height="1.6"/>
			</g>
			<g>
				<rect x="120.5" y="197.7" class="st4" width="22.4" height="1.6"/>
			</g>
			<g>
				<rect x="120.5" y="203.1" class="st4" width="22.4" height="1.6"/>
			</g>
			<g>
				<rect x="120.5" y="209.3" class="st4" width="39.6" height="1.6"/>
			</g>
			<g>
				<rect x="120.5" y="215.6" class="st4" width="39.6" height="1.6"/>
			</g>
			<g>
				<rect x="120.5" y="221.8" class="st4" width="39.6" height="1.6"/>
			</g>
			<g>
				<rect x="120.5" y="228.3" class="st4" width="39.6" height="1.6"/>
			</g>
			<g>
				<rect x="120.5" y="234.5" class="st4" width="39.6" height="1.6"/>
			</g>
		</g>
	</g>
	<g>
		<g>
			<path class="st1" d="M407.3,249.2c3.8,0,7.6,0,11.5,0c1.2,0,1.2-1.6,0-1.6c-3.8,0-7.6,0-11.5,0
				C406.1,247.6,406.1,249.2,407.3,249.2z"/>
		</g>
		<g>
			<path class="st1" d="M46.1,249.3c92.6-0.1,185.2-0.1,277.9-0.1c26.3,0,52.6,0,79,0.1c1.2,0,1.2-1.6,0-1.6
				c-92.6-0.1-185.1-0.1-277.7,0c-26.4,0-52.7,0-79.1,0.1C44.9,247.6,44.9,249.3,46.1,249.3z"/>
		</g>
		<g>
			<path class="st1" d="M31.7,249.3c3.5-0.1,7.1-0.1,10.6,0c1.2,0,1.2-1.6,0-1.6c-3.5-0.1-7.1-0.1-10.6,0
				C30.5,247.7,30.5,249.3,31.7,249.3z"/>
		</g>
	</g>
	<g>
		<g>
			<path class="st1" d="M373.5,145.5h0.6c0-0.8,0.7-1.5,1.5-1.5c0.8,0,1.5,0.7,1.5,1.5c0,0.8-0.7,1.5-1.5,1.5
				c-0.8,0-1.5-0.7-1.5-1.5H373.5h-0.6c0,1.5,1.2,2.7,2.7,2.7c1.5,0,2.7-1.2,2.7-2.7c0-1.5-1.2-2.7-2.7-2.7c-1.5,0-2.7,1.2-2.7,2.7
				H373.5z"/>
		</g>
	</g>
	<g>
		<g>
			<path class="st1" d="M54.3,180.4h0.6c0-0.8,0.7-1.5,1.5-1.5c0.8,0,1.5,0.7,1.5,1.5c0,0.8-0.7,1.5-1.5,1.5c-0.8,0-1.5-0.7-1.5-1.5
				H54.3h-0.6c0,1.5,1.2,2.7,2.7,2.7c1.5,0,2.7-1.2,2.7-2.7c0-1.5-1.2-2.7-2.7-2.7c-1.5,0-2.7,1.2-2.7,2.7H54.3z"/>
		</g>
	</g>
	<g>
		<g>
			<path class="st1" d="M320.2,73.7c8.7,0,17.4,0.1,26.2,0.1c0.8,0,0.8-1.2,0-1.2c-8.7,0-17.4-0.1-26.2-0.1
				C319.4,72.5,319.4,73.7,320.2,73.7z"/>
		</g>
		<g>
			<path class="st1" d="M312.4,73.9c1.3,0,2.5-0.1,3.8-0.1c0.8,0,0.8-1.2,0-1.2c-1.3,0-2.5,0.1-3.8,0.1
				C311.6,72.7,311.6,73.9,312.4,73.9z"/>
		</g>
		<g>
			<path class="st1" d="M304.3,73.9c1.3,0,2.6,0,3.9,0c0.8,0,0.8-1.2,0-1.2c-1.3,0-2.6,0-3.9,0C303.5,72.6,303.5,73.9,304.3,73.9z"
				/>
		</g>
		<g>
			<path class="st1" d="M299.3,73.3h-0.6c0,0.8-0.7,1.5-1.5,1.5c-0.8,0-1.5-0.7-1.5-1.5c0-0.8,0.7-1.5,1.5-1.5
				c0.8,0,1.5,0.7,1.5,1.5H299.3h0.6c0-1.5-1.2-2.7-2.7-2.7c-1.5,0-2.7,1.2-2.7,2.7c0,1.5,1.2,2.7,2.7,2.7c1.5,0,2.7-1.2,2.7-2.7
				H299.3z"/>
		</g>
	</g>
	<g>
		<g>
			<path class="st1" d="M324.3,159.1c-6.1,0-12.2-0.1-18.3-0.1c-0.8,0-0.8,1.2,0,1.2c6.1,0,12.2,0.1,18.3,0.1
				C325.1,160.3,325.1,159.1,324.3,159.1z"/>
		</g>
		<g>
			<path class="st1" d="M329.7,158.9c-0.9,0-1.8,0.1-2.7,0.1c-0.8,0-0.8,1.3,0,1.2c0.9,0,1.8-0.1,2.7-0.1
				C330.5,160.1,330.5,158.9,329.7,158.9z"/>
		</g>
		<g>
			<path class="st1" d="M335.4,158.9c-0.9,0-1.8,0-2.7,0c-0.8,0-0.8,1.2,0,1.2c0.9,0,1.8,0,2.7,0
				C336.2,160.2,336.2,158.9,335.4,158.9z"/>
		</g>
	</g>
	<g>
		<g>
			<path class="st1" d="M176.8,79.8c-8.7,0-17.4-0.1-26.2-0.1c-0.8,0-0.8,1.2,0,1.2c8.7,0,17.4,0.1,26.2,0.1
				C177.5,81.1,177.5,79.8,176.8,79.8z"/>
		</g>
		<g>
			<path class="st1" d="M184.5,79.7c-1.3,0-2.5,0.1-3.8,0.1c-0.8,0-0.8,1.2,0,1.2c1.3,0,2.5-0.1,3.8-0.1
				C185.3,80.9,185.3,79.7,184.5,79.7z"/>
		</g>
		<g>
			<path class="st1" d="M192.7,79.7c-1.3,0-2.6,0-3.9,0c-0.8,0-0.8,1.2,0,1.2c1.3,0,2.6,0,3.9,0C193.5,80.9,193.5,79.7,192.7,79.7z"
				/>
		</g>
		<g>
			<path class="st1" d="M197.7,80.3h0.6c0-0.8,0.7-1.5,1.5-1.5c0.8,0,1.5,0.7,1.5,1.5c0,0.8-0.7,1.5-1.5,1.5c-0.8,0-1.5-0.7-1.5-1.5
				H197.7h-0.6c0,1.5,1.2,2.7,2.7,2.7c1.5,0,2.7-1.2,2.7-2.7c0-1.5-1.2-2.7-2.7-2.7c-1.5,0-2.7,1.2-2.7,2.7H197.7z"/>
		</g>
	</g>
	<g>
		<g>
			<path class="st1" d="M115.4,111.5c8.7,0,17.4,0.1,26.2,0.1c0.8,0,0.8-1.2,0-1.2c-8.7,0-17.4-0.1-26.2-0.1
				C114.6,110.2,114.6,111.5,115.4,111.5z"/>
		</g>
		<g>
			<path class="st1" d="M107.6,111.6c1.3,0,2.5-0.1,3.8-0.1c0.8,0,0.8-1.2,0-1.2c-1.3,0-2.5,0.1-3.8,0.1
				C106.8,110.4,106.8,111.6,107.6,111.6z"/>
		</g>
		<g>
			<path class="st1" d="M99.5,111.6c1.3,0,2.6,0,3.9,0c0.8,0,0.8-1.2,0-1.2c-1.3,0-2.6,0-3.9,0C98.7,110.4,98.7,111.6,99.5,111.6z"
				/>
		</g>
		<g>
			<path class="st1" d="M94.5,111h-0.6c0,0.8-0.7,1.5-1.5,1.5c-0.8,0-1.5-0.7-1.5-1.5c0-0.8,0.7-1.5,1.5-1.5c0.8,0,1.5,0.7,1.5,1.5
				H94.5h0.6c0-1.5-1.2-2.7-2.7-2.7c-1.5,0-2.7,1.2-2.7,2.7c0,1.5,1.2,2.7,2.7,2.7c1.5,0,2.7-1.2,2.7-2.7H94.5z"/>
		</g>
	</g>
	<g>
		<g>
			<path class="st1" d="M301.4,46.3c-6.1,0-12.2-0.1-18.3-0.1c-0.8,0-0.8,1.2,0,1.2c6.1,0,12.2,0.1,18.3,0.1
				C302.2,47.6,302.2,46.3,301.4,46.3z"/>
		</g>
		<g>
			<path class="st1" d="M306.9,46.2c-0.9,0-1.8,0.1-2.7,0.1c-0.8,0-0.8,1.3,0,1.2c0.9,0,1.8-0.1,2.7-0.1
				C307.7,47.4,307.7,46.2,306.9,46.2z"/>
		</g>
		<g>
			<path class="st1" d="M312.6,46.2c-0.9,0-1.8,0-2.7,0c-0.8,0-0.8,1.2,0,1.2c0.9,0,1.8,0,2.7,0C313.4,47.4,313.4,46.2,312.6,46.2z"
				/>
		</g>
	</g>
	<g>
		<g>
			<path class="st1" d="M293.1,138.3h0.6c0-0.8,0.7-1.5,1.5-1.5c0.8,0,1.5,0.7,1.5,1.5c0,0.8-0.7,1.5-1.5,1.5
				c-0.8,0-1.5-0.7-1.5-1.5H293.1h-0.6c0,1.5,1.2,2.7,2.7,2.7c1.5,0,2.7-1.2,2.7-2.7c0-1.5-1.2-2.7-2.7-2.7c-1.5,0-2.7,1.2-2.7,2.7
				H293.1z"/>
		</g>
	</g>
	<g>
		<polygon class="st1" points="339,181 339,178.6 338,178.6 338,181 335.7,181 335.7,182 338,182 338,184.3 339,184.3 339,182 
			341.4,182 341.4,181 		"/>
	</g>
	<g>
		<polygon class="st1" points="285.1,22.4 285.1,20 284,20 284,22.4 281.7,22.4 281.7,23.4 284,23.4 284,25.7 285.1,25.7 
			285.1,23.4 287.4,23.4 287.4,22.4 		"/>
	</g>
	<g>
		<polygon class="st1" points="227,87.6 227,85.3 226,85.3 226,87.6 223.6,87.6 223.6,88.7 226,88.7 226,91 227,91 227,88.7 
			229.3,88.7 229.3,87.6 		"/>
	</g>
	<g>
		<polygon class="st1" points="166.5,43 166.5,40.7 165.5,40.7 165.5,43 163.2,43 163.2,44 165.5,44 165.5,46.3 166.5,46.3 
			166.5,44 168.8,44 168.8,43 		"/>
	</g>
	<g>
		<g>
			<polyline class="st1" points="262.9,102.2 293,102.2 293,101.2 262.9,101.2 			"/>
		</g>
		<g>
			<polyline class="st1" points="262.9,107.1 289.1,107.1 289.1,106.1 262.9,106.1 			"/>
		</g>
		<g>
			<polyline class="st1" points="262.9,113 284.5,113 284.5,112 262.9,112 			"/>
		</g>
	</g>
	<g>
		<g>
			<circle class="st6" cx="95.1" cy="148.2" r="20.3"/>
		</g>
		<g>
			<path class="st7" d="M115.4,148.2H95.1v-20.3C106.3,127.8,115.4,136.9,115.4,148.2z"/>
		</g>
	</g>
	<g>
		<g>
			<polygon class="st1" points="181.7,108.3 178.1,111.7 179.3,112.3 173.1,125.3 167.2,114.2 160,127.7 155.5,121.3 150.7,128.5 
				145.7,129.4 145.9,130.4 151.3,129.5 155.5,123.2 160.1,129.7 167.2,116.5 173.2,127.7 180.3,112.8 181.4,113.3 			"/>
		</g>
	</g>
	<g>
		<g>
			<circle class="st8" cx="229.3" cy="38.2" r="21.9"/>
			<path class="st9" d="M229.3,60.6c-12.4,0-22.5-10.1-22.5-22.5c0-12.4,10.1-22.5,22.5-22.5c12.4,0,22.5,10.1,22.5,22.5
				C251.8,50.6,241.7,60.6,229.3,60.6z M229.3,16.9c-11.7,0-21.3,9.5-21.3,21.3c0,11.7,9.5,21.3,21.3,21.3
				c11.7,0,21.3-9.5,21.3-21.3C250.6,26.4,241,16.9,229.3,16.9z"/>
		</g>
		<g>
			<circle class="st10" cx="229.3" cy="38.2" r="16.7"/>
		</g>
		<g>
			<g>
				<g>
					<path class="st1" d="M227.6,34c0,3.9-2.5,5.9-5.1,5.9c-2.8,0-5.1-2.1-5.1-5.6c0-3.3,2-5.8,5.2-5.8
						C225.8,28.5,227.6,30.9,227.6,34z M220.7,34.2c0,1.9,0.7,3.3,1.9,3.3c1.2,0,1.8-1.3,1.8-3.3c0-1.9-0.5-3.3-1.9-3.3
						C221.3,30.9,220.7,32.4,220.7,34.2z M222.7,47.7l10.6-19.2h2.3L225,47.7H222.7z M241,41.7c0,3.9-2.5,5.9-5.1,5.9
						c-2.8,0-5-2.1-5.1-5.6c0-3.3,2-5.8,5.2-5.8C239.2,36.2,241,38.6,241,41.7z M234,41.9c0,1.9,0.6,3.3,1.9,3.3
						c1.2,0,1.8-1.3,1.8-3.3c0-1.9-0.5-3.3-1.8-3.3C234.6,38.6,234,40.1,234,41.9z"/>
				</g>
			</g>
		</g>
	</g>
	<g>
		<path class="st1" d="M130.3,76.1v-2.5c-1.8-0.1-3.5-0.6-4.5-1.1l0.8-3.1c1.1,0.6,2.7,1.2,4.4,1.2c1.5,0,2.5-0.6,2.5-1.6
			c0-1-0.8-1.6-2.8-2.3c-2.8-0.9-4.7-2.3-4.7-4.8c0-2.3,1.6-4.1,4.4-4.7v-2.5h2.6V57c1.8,0.1,2.9,0.4,3.8,0.9l-0.8,3
			c-0.7-0.3-1.9-0.9-3.8-0.9c-1.7,0-2.3,0.7-2.3,1.5c0,0.9,0.9,1.4,3.1,2.3c3.1,1.1,4.4,2.5,4.4,4.9c0,2.3-1.7,4.3-4.7,4.9v2.7
			H130.3z"/>
	</g>
	<g>
		<g>
			<line class="st8" x1="243.3" y1="2.6" x2="238.6" y2="14.4"/>
		</g>
		<g>
			<polyline class="st9" points="242.8,2.4 238.1,14.2 239.2,14.6 243.8,2.8 			"/>
		</g>
		<g>
			<line class="st8" x1="220" y1="61.7" x2="215.3" y2="73.5"/>
		</g>
		<g>
			<polyline class="st9" points="219.5,61.5 214.8,73.3 215.8,73.7 220.5,61.9 			"/>
		</g>
		<g>
			<line class="st8" x1="264.8" y1="52.1" x2="253" y2="47.4"/>
		</g>
		<g>
			<polyline class="st9" points="265,51.5 253.2,46.9 252.8,47.9 264.6,52.6 			"/>
		</g>
		<g>
			<line class="st8" x1="205.7" y1="28.7" x2="193.8" y2="24"/>
		</g>
		<g>
			<polyline class="st9" points="205.9,28.2 194,23.5 193.6,24.5 205.5,29.2 			"/>
		</g>
		<g>
			<line class="st8" x1="264.3" y1="22.9" x2="252.6" y2="27.9"/>
		</g>
		<g>
			<polyline class="st9" points="264.1,22.4 252.4,27.4 252.9,28.4 264.5,23.4 			"/>
		</g>
		<g>
			<line class="st8" x1="206" y1="48.2" x2="194.3" y2="53.2"/>
		</g>
		<g>
			<polyline class="st9" points="205.8,47.7 194.1,52.7 194.5,53.7 206.2,48.7 			"/>
		</g>
		<g>
			<line class="st8" x1="244.5" y1="73" x2="239.4" y2="61.4"/>
		</g>
		<g>
			<polyline class="st9" points="245,72.8 239.9,61.2 238.9,61.6 244,73.3 			"/>
		</g>
		<g>
			<line class="st8" x1="219.2" y1="14.7" x2="214.1" y2="3.1"/>
		</g>
		<g>
			<polyline class="st9" points="219.7,14.5 214.6,2.8 213.6,3.3 218.7,14.9 			"/>
		</g>
		<g>
			<polyline class="st9" points="228.8,-0.1 228.8,12.6 229.9,12.6 229.9,-0.1 			"/>
		</g>
		<g>
			<polyline class="st9" points="228.8,63.5 228.8,76.2 229.9,76.2 229.9,63.5 			"/>
		</g>
		<g>
			<polyline class="st9" points="267.5,37.5 254.7,37.5 254.7,38.6 267.5,38.6 			"/>
		</g>
		<g>
			<polyline class="st9" points="203.9,37.5 191.2,37.5 191.2,38.6 203.9,38.6 			"/>
		</g>
		<g>
			<line class="st8" x1="256.3" y1="11.1" x2="247.3" y2="20.1"/>
		</g>
		<g>
			<polyline class="st9" points="255.9,10.7 246.9,19.7 247.7,20.5 256.7,11.5 			"/>
		</g>
		<g>
			<line class="st8" x1="211.3" y1="56" x2="202.3" y2="65"/>
		</g>
		<g>
			<polyline class="st9" points="210.9,55.6 202,64.6 202.7,65.4 211.7,56.4 			"/>
		</g>
		<g>
			<line class="st8" x1="256.3" y1="65" x2="247.3" y2="56"/>
		</g>
		<g>
			<polyline class="st9" points="256.7,64.6 247.7,55.6 246.9,56.4 255.9,65.4 			"/>
		</g>
		<g>
			<line class="st8" x1="211.3" y1="20.1" x2="202.3" y2="11.1"/>
		</g>
		<g>
			<polyline class="st9" points="211.7,19.7 202.7,10.7 202,11.5 210.9,20.5 			"/>
		</g>
	</g>
	<g>
		<g>
			
				<rect x="391.9" y="213.5" transform="matrix(1 2.816169e-003 -2.816169e-003 1 0.6517 -1.1087)" class="st11" width="4.3" height="34.8"/>
		</g>
		<g>
			<polygon class="st1" points="396.1,248.3 396.1,247.7 392.4,247.7 392.5,214.1 395.6,214.1 395.5,248.3 396.1,248.3 396.1,247.7 
				396.1,248.3 396.7,248.3 396.8,212.9 391.3,212.9 391.2,248.8 396.7,248.8 396.7,248.3 			"/>
		</g>
		<g>
			<polygon class="st12" points="394.1,210.1 391.9,213.5 396.2,213.5 			"/>
		</g>
		<g>
			<polygon class="st1" points="394.1,210.1 393.6,209.8 391.3,212.9 391.3,214.1 396.8,214.1 396.8,212.9 394.1,209 393.6,209.8 
				394.1,210.1 393.6,210.4 395.1,212.9 393,212.9 394.6,210.4 394.1,210.1 393.6,210.4 			"/>
		</g>
	</g>
	<g>
		<g>
			
				<rect x="397.8" y="197.1" transform="matrix(1 2.707231e-003 -2.707231e-003 1 0.6046 -1.0885)" class="st13" width="9.1" height="51.4"/>
		</g>
		<g>
			<polyline class="st1" points="398.5,197.6 406.4,197.7 406.3,248.5 406.9,248.5 406.9,247.9 406.9,248.5 407.4,248.5 
				407.6,196.5 397.3,196.5 397.2,249 407.4,249.1 407.4,248.5 406.9,248.5 406.9,247.9 398.3,247.9 			"/>
		</g>
		<g>
			<polyline class="st1" points="404.7,202.7 407,202.7 407,201.5 404.7,201.5 			"/>
		</g>
		<g>
			<polyline class="st1" points="404.7,209.5 407,209.5 407,208.3 404.7,208.3 			"/>
		</g>
		<g>
			<polyline class="st1" points="404.7,216.3 406.9,216.3 406.9,215.2 404.7,215.2 			"/>
		</g>
		<g>
			<polyline class="st1" points="404.7,223.1 406.9,223.1 406.9,222 404.7,222 			"/>
		</g>
		<g>
			<polyline class="st1" points="404.6,229.9 406.9,229.9 406.9,228.8 404.6,228.8 			"/>
		</g>
		<g>
			<polyline class="st1" points="404.6,237 406.9,237 406.9,235.9 404.6,235.9 			"/>
		</g>
		<g>
			<polyline class="st1" points="404.6,243.7 406.9,243.7 406.9,242.5 404.6,242.5 			"/>
		</g>
	</g>
	<g>
		<g>
			<g>
				<circle class="st14" cx="380.9" cy="204.3" r="17.1"/>
			</g>
			<g>
				<path class="st1" d="M380.9,222c-9.7,0-17.6-7.9-17.6-17.6c0-9.7,7.9-17.6,17.6-17.6s17.6,7.9,17.6,17.6
					C398.6,214.1,390.7,222,380.9,222z M380.9,187.8c-9.1,0-16.6,7.4-16.6,16.6c0,9.1,7.4,16.6,16.6,16.6c9.1,0,16.6-7.4,16.6-16.6
					C397.5,195.2,390.1,187.8,380.9,187.8z"/>
			</g>
		</g>
		<g>
			<g>
				<circle class="st0" cx="380.9" cy="204.3" r="12.6"/>
			</g>
		</g>
		<g>
			<g>
				<rect x="379.3" y="221.4" class="st1" width="3.1" height="11.1"/>
			</g>
		</g>
		<g>
			<g>
				<rect x="377.6" y="224.9" class="st4" width="6.6" height="22.7"/>
			</g>
			<g>
				<path class="st1" d="M384.8,248.2h-7.7v-23.8h7.7V248.2z M378.1,247.1h5.5v-21.6h-5.5V247.1z"/>
			</g>
		</g>
	</g>
	<g>
		<g>
			<circle class="st15" cx="335.7" cy="116.8" r="22.4"/>
		</g>
		<g>
			<path class="st1" d="M358.1,116.8h-0.6c0,6-2.4,11.5-6.4,15.4c-4,4-9.4,6.4-15.4,6.4c-6,0-11.5-2.4-15.4-6.4
				c-4-4-6.4-9.4-6.4-15.4c0-6,2.4-11.5,6.4-15.4c4-4,9.4-6.4,15.4-6.4c6,0,11.5,2.4,15.4,6.4c4,4,6.4,9.4,6.4,15.4H358.1h0.6
				c0-12.7-10.3-23-23-23c-12.7,0-23,10.3-23,23c0,12.7,10.3,23,23,23c12.7,0,23-10.3,23-23H358.1z"/>
		</g>
		<g>
			<circle class="st16" cx="335.7" cy="116.8" r="19.7"/>
		</g>
		<g>
			<path class="st1" d="M355.4,116.8h-0.6c0,5.3-2.1,10-5.6,13.5c-3.5,3.5-8.2,5.6-13.5,5.6c-5.3,0-10-2.1-13.5-5.6
				c-3.5-3.5-5.6-8.2-5.6-13.5c0-5.3,2.1-10,5.6-13.5c3.5-3.5,8.2-5.6,13.5-5.6c5.3,0,10,2.1,13.5,5.6c3.5,3.5,5.6,8.2,5.6,13.5
				H355.4h0.6c0-11.2-9.1-20.3-20.3-20.3c-11.2,0-20.3,9.1-20.3,20.3c0,11.2,9.1,20.3,20.3,20.3c11.2,0,20.3-9.1,20.3-20.3H355.4z"
				/>
		</g>
		<g>
			<circle class="st1" cx="335.5" cy="100.7" r="1.4"/>
		</g>
		<g>
			<circle class="st1" cx="335.5" cy="133" r="1.4"/>
		</g>
		<g>
			<circle class="st1" cx="351.7" cy="116.9" r="1.4"/>
		</g>
		<g>
			<circle class="st1" cx="319.4" cy="116.9" r="1.4"/>
		</g>
		<g>
			<path class="st1" d="M341.6,107.5c-2.2,3-4.4,6-6.6,9c-0.6,0.8,0.8,1.7,1.4,0.8c2.2-3,4.4-6,6.6-9
				C343.6,107.4,342.2,106.6,341.6,107.5z"/>
		</g>
		<g>
			<path class="st1" d="M335.2,117.1c1.1,4.5,2.3,9,3.4,13.4c0.1,0.5,0.9,0.3,0.8-0.2c-1.1-4.5-2.3-9-3.4-13.4
				C335.9,116.3,335.1,116.6,335.2,117.1z"/>
		</g>
	</g>
	<g>
		<g>
			<rect x="175.4" y="159.6" class="st17" width="102.1" height="71.2"/>
		</g>
		<g>
			<g>
				<rect x="174.9" y="164.4" class="st14" width="20.4" height="61.6"/>
				<path class="st1" d="M195.9,226.6h-21.6v-62.8h21.6V226.6z M175.5,225.3h19.1V165h-19.1V225.3z"/>
			</g>
			<g>
				<rect x="172.2" y="159.6" class="st14" width="25.8" height="4.8"/>
				<path class="st1" d="M198.6,165h-27v-6h27V165z M172.8,163.8h24.6v-3.6h-24.6V163.8z"/>
			</g>
			<g>
				<rect x="172.2" y="225.5" class="st14" width="25.8" height="4.8"/>
				<path class="st1" d="M198.6,230.9h-27v-6h27V230.9z M172.8,229.7h24.6v-3.6h-24.6V229.7z"/>
			</g>
		</g>
		<g>
			<g>
				<rect x="257.7" y="164.4" class="st14" width="20.4" height="61.6"/>
				<path class="st1" d="M278.6,226.6h-21.6v-62.8h21.6V226.6z M258.3,225.3h19.1V165h-19.1V225.3z"/>
			</g>
			<g>
				<rect x="254.9" y="159.6" class="st14" width="25.8" height="4.8"/>
				<path class="st1" d="M281.4,165h-27v-6h27V165z M255.6,163.8h24.6v-3.6h-24.6V163.8z"/>
			</g>
			<g>
				<rect x="254.9" y="225.5" class="st14" width="25.8" height="4.8"/>
				<path class="st1" d="M281.4,230.9h-27v-6h27V230.9z M255.6,229.7h24.6v-3.6h-24.6V229.7z"/>
			</g>
		</g>
		<g>
			<g>
				<path class="st14" d="M248.8,201.7c0,2.1-0.4,4-1.3,5.9c-0.9,1.8-2.1,3.4-3.6,4.8c-1.5,1.4-3.4,2.6-5.7,3.5
					c-2.2,0.9-4.8,1.5-7.5,1.6v13.3h-6v-13.1c-2.7,0-5.6-0.4-8.8-1c-3.2-0.6-5.8-1.4-7.7-2.4v-10.7h1.2c1.2,0.8,3.3,1.6,6.4,2.6
					c3.1,1,6.1,1.6,9.2,1.7v-10.2l-3.3-0.8c-1.9-0.5-3.7-1-5.4-1.7c-1.7-0.7-3.3-1.6-4.6-2.7c-1.4-1.1-2.4-2.5-3.2-4.1
					c-0.8-1.6-1.2-3.7-1.2-6.2c0-3.7,1.5-6.8,4.6-9.4c3.1-2.6,7.4-4.2,12.9-4.7v-8.6h6v8.5c2.2,0.1,4.7,0.4,7.6,1
					c2.9,0.6,5.1,1.2,6.6,1.9v10.6h-1.2c-1.8-1.1-3.7-2-5.9-2.6c-2.1-0.6-4.6-1-7.3-1.2v9.4l3.2,0.7c5.1,1.1,8.9,2.7,11.3,4.8
					C247.6,194.7,248.8,197.7,248.8,201.7z M225.1,186.3v-8.6c-1.4,0.1-2.6,0.5-3.6,1.2c-1,0.7-1.5,1.7-1.5,3c0,1.1,0.3,1.9,0.9,2.6
					C221.5,185.2,222.9,185.8,225.1,186.3z M235.8,203.2c0-1.2-0.4-2.2-1.3-3c-0.9-0.8-2.3-1.4-4.2-1.7v9.4c1.5-0.1,2.8-0.6,3.9-1.3
					C235.3,205.8,235.8,204.7,235.8,203.2z"/>
			</g>
		</g>
		<g>
			<rect x="166.8" y="151.8" class="st4" width="119.4" height="7.8"/>
			<path class="st1" d="M286.8,160.2H166.2v-9h120.6V160.2z M167.4,159h118.2v-6.6H167.4V159z"/>
		</g>
		<g>
			<rect x="166.8" y="230.3" class="st4" width="119.4" height="11.8"/>
			<path class="st1" d="M286.8,242.6H166.2v-13h120.6V242.6z M167.4,241.4h118.2v-10.5H167.4V241.4z"/>
		</g>
		<g>
			<polygon class="st14" points="294.3,154.1 158.6,154.1 226.5,111.1 			"/>
			<path class="st1" d="M296.4,154.7H156.5l69.9-44.4L296.4,154.7z M160.7,153.5h131.5l-65.8-41.7L160.7,153.5z"/>
		</g>
		<g>
			<rect x="158.6" y="236.1" class="st14" width="135.7" height="12"/>
			<path class="st1" d="M294.9,248.7H158v-13.2h136.9V248.7z M159.2,247.5h134.5v-10.8H159.2V247.5z"/>
		</g>
		<g>
			<circle class="st4" cx="226.5" cy="138.5" r="11.5"/>
		</g>
	</g>
	<g>
		<g>
			<path class="st18" d="M129.5,202.3v35.8c0,5.5-4.4,9.9-9.9,9.9H62c-5.5,0-9.9-4.4-9.9-9.9v-35.8c0-5.5,4.4-9.9,9.9-9.9h57.6
				C125.1,192.3,129.5,196.8,129.5,202.3z"/>
			<path class="st1" d="M125.5,248.4H56.1c-2.4,0-4.3-1.9-4.3-4.3v-47.7c0-2.4,1.9-4.3,4.3-4.3h69.4c2.4,0,4.3,1.9,4.3,4.3V244
				C129.8,246.4,127.9,248.4,125.5,248.4z M56.1,192.6c-2,0-3.7,1.7-3.7,3.7V244c0,2,1.7,3.7,3.7,3.7h69.4c2,0,3.7-1.7,3.7-3.7
				v-47.7c0-2-1.7-3.7-3.7-3.7H56.1z"/>
		</g>
		<g>
			<rect x="59.7" y="198.7" class="st19" width="62.3" height="43"/>
		</g>
		<g>
			<circle class="st20" cx="125.5" cy="221" r="2.3"/>
		</g>
		<g>
			<circle class="st20" cx="55.3" cy="221" r="0.9"/>
		</g>
		<g>
			<polygon class="st21" points="64.3,231.4 74,221.7 82.9,231.9 96.4,218.7 104.4,227.3 117.3,211.3 117.3,237.7 64.3,237.7 			"/>
		</g>
		<g>
			<g>
				<polygon class="st22" points="82.9,232.9 74,222.7 64.7,231.9 63.8,230.9 74,220.7 82.9,230.9 96.4,217.7 104.3,226.2 
					116.8,210.9 117.8,211.8 104.4,228.3 96.4,219.6 				"/>
			</g>
		</g>
	</g>
	<g>
		<g>
			<path class="st4" d="M309.1,248.6h-27.6c-6.3,0-11.4-5.1-11.4-11.4v-38.7c0-6.3,5.1-11.4,11.4-11.4h27.6
				c6.3,0,11.4,5.1,11.4,11.4v38.7C320.5,243.5,315.4,248.6,309.1,248.6z"/>
			<path class="st1" d="M315.9,249.2h-41.2c-2.9,0-5.2-2.3-5.2-5.2v-52.3c0-2.9,2.3-5.2,5.2-5.2h41.2c2.9,0,5.2,2.3,5.2,5.2V244
				C321.1,246.9,318.8,249.2,315.9,249.2z M274.7,187.7c-2.2,0-4,1.8-4,4V244c0,2.2,1.8,4,4,4h41.2c2.2,0,4-1.8,4-4v-52.3
				c0-2.2-1.8-4-4-4H274.7z"/>
		</g>
		<g>
			<rect x="273.9" y="193" class="st7" width="42.7" height="9.8"/>
		</g>
		<g>
			<rect x="274.1" y="215.8" class="st0" width="7.6" height="7.6"/>
		</g>
		<g>
			<rect x="285.8" y="215.8" class="st0" width="7.6" height="7.6"/>
		</g>
		<g>
			<rect x="297.6" y="215.8" class="st0" width="7.6" height="7.6"/>
		</g>
		<g>
			<rect x="308.9" y="215.8" class="st0" width="7.6" height="7.6"/>
		</g>
		<g>
			<rect x="274.1" y="226.3" class="st0" width="7.6" height="7.6"/>
		</g>
		<g>
			<rect x="285.8" y="226.3" class="st0" width="7.6" height="7.6"/>
		</g>
		<g>
			<rect x="297.6" y="226.3" class="st0" width="7.6" height="7.6"/>
		</g>
		<g>
			<rect x="308.9" y="226.3" class="st0" width="7.6" height="7.6"/>
		</g>
		<g>
			<rect x="274.1" y="236.8" class="st0" width="7.6" height="7.6"/>
		</g>
		<g>
			<rect x="285.8" y="236.8" class="st0" width="7.6" height="7.6"/>
		</g>
		<g>
			<rect x="297.6" y="236.8" class="st0" width="7.6" height="7.6"/>
		</g>
		<g>
			<rect x="308.9" y="236.8" class="st0" width="7.6" height="7.6"/>
		</g>
		<g>
			<rect x="274.1" y="208.9" class="st0" width="7.6" height="3.8"/>
		</g>
		<g>
			<rect x="285.8" y="208.9" class="st0" width="7.6" height="3.8"/>
		</g>
		<g>
			<rect x="297.6" y="208.9" class="st0" width="7.6" height="3.8"/>
		</g>
		<g>
			<rect x="308.9" y="208.9" class="st0" width="7.6" height="3.8"/>
		</g>
	</g>
	<g>
		<g>
			<g>
				<path class="st1" d="M374.6,234.5c-0.7,0-1.5-0.3-2-1.4c-0.1-0.1-0.1-0.3-0.2-0.5c-0.3,0-0.5,0-0.8-0.1c-2-0.6-2.8-3.7-2.8-4
					l1.2-0.3c0.2,0.8,0.9,2.8,2,3.2c0.1,0,0.2,0,0.3,0.1c0.1-1.1,0.5-2.2,1.1-2.8c0.6-0.5,1.3-0.6,2-0.2c0.7,0.4,0.9,1.2,0.6,1.9
					c-0.4,0.8-1.4,1.6-2.4,2c0,0.1,0,0.1,0.1,0.2c0.4,0.9,1.1,0.7,1.3,0.6l0.5,1.1C375.1,234.5,374.9,234.5,374.6,234.5z
					 M374.6,229.5c-0.1,0-0.2,0-0.3,0.1c-0.3,0.3-0.6,0.9-0.7,1.5c0.6-0.3,1.2-0.8,1.4-1.2c0.1-0.2,0-0.3-0.1-0.4
					C374.7,229.5,374.6,229.5,374.6,229.5z"/>
			</g>
		</g>
		<g>
			<polygon class="st23" points="338.8,248.2 331.5,248.2 328.7,238.1 338.8,238.1 			"/>
			<path class="st1" d="M339.4,248.8h-8.3l-3.1-11.3h11.5V248.8z M332,247.6h6.2v-8.8h-8.7L332,247.6z"/>
		</g>
		<g>
			<polygon class="st23" points="360.5,248.2 354.2,248.2 354.2,237.7 363.3,237.7 			"/>
			<path class="st1" d="M361,248.8h-7.3v-11.7h10.4L361,248.8z M354.8,247.6h5.2l2.5-9.3h-7.7V247.6z"/>
		</g>
		<g>
			<path class="st24" d="M345.8,201c-4.3,0-8.3,0.8-11.8,2.3c-1.3,0.5-10.2-4.3-10.2-4.3s4,7.7,2.9,8.7c-3.1,2.6-5.3,5.9-6.5,9.5
				h-4.5v12.7h5.1c3.6,8.4,13.5,14.4,25,14.4c14.6,0,26.5-9.7,26.5-21.6C372.3,210.6,360.5,201,345.8,201z"/>
			<path class="st1" d="M345.8,244.8c-11.3,0-21.5-5.8-25.4-14.4h-5.3v-13.9h4.6c1.2-3.5,3.4-6.7,6.5-9.3c0.3-0.7-1.1-4.3-3-8
				l-0.9-1.7l1.7,0.9c4,2.2,8.9,4.4,9.7,4.3c3.7-1.5,7.8-2.3,12-2.3c14.9,0,27.1,10,27.1,22.2C372.9,234.8,360.8,244.8,345.8,244.8z
				 M316.3,229.2h4.9l0.2,0.4c3.6,8.4,13.5,14.1,24.4,14.1c14.3,0,25.9-9.4,25.9-21c0-11.6-11.6-21-25.9-21c-4.1,0-8,0.7-11.6,2.2
				c-1.2,0.5-5.6-1.6-9-3.4c1.6,3.3,2.9,6.8,1.9,7.7c-3,2.6-5.2,5.8-6.3,9.2l-0.1,0.4h-4.3V229.2z"/>
		</g>
		<g>
			<g>
				<path class="st25" d="M356.6,206.5c-8.6-3.2-16.7-1-16.8-0.9l-0.4-1.6c0.3-0.1,8.7-2.4,17.8,1L356.6,206.5z"/>
			</g>
		</g>
		<g>
			
				<ellipse transform="matrix(0.9847 0.1742 -0.1742 0.9847 42.1604 -53.9771)" class="st26" cx="328.5" cy="213.1" rx="1" ry="2.2"/>
		</g>
	</g>
</g>
</svg>
