<?xml version="1.0" encoding="utf-8"?>
<!-- Generator: Adobe Illustrator 19.1.1, SVG Export Plug-In . SVG Version: 6.00 Build 0)  -->
<svg version="1.1" id="Layer_1" xmlns="http://www.w3.org/2000/svg" xmlns:xlink="http://www.w3.org/1999/xlink" x="0px" y="0px"
	 viewBox="22 -21.5 100 100" style="enable-background:new 22 -21.5 100 100;" xml:space="preserve">
<style type="text/css">
	.st0{fill:#333333;}
</style>
<g>
	<path class="st0" d="M98.8-21.5c-10.5,0-19,8.5-19,19s8.5,19,19,19c10.5,0,19-8.5,19-19S109.3-21.5,98.8-21.5z M104.5-5.6L104-3.5
		h-8.2c0,0.2,0,1.4,0,1.8h7.8l-0.5,2.1h-7c1.2,5.4,8.1,4.2,9.8,2.3v4.1c-7.4,2.9-13.6-1.4-14.5-6.4h-2.3l0.5-2.1h1.5
		c0-0.2,0-1.5,0-1.8h-2l0.5-2.1h1.8c2.5-9.2,12.9-7.3,14.6-6.4l-0.9,3.7c-1-1.3-7.5-2.7-9,2.7H104.5z M92.1,17.6l10,23.5l-10.7-4.3
		c-8.6,18.3-27.4,28.8-46.6,27.5V52.6c14.6,1.3,29.1-6.4,35.8-20.1l-12-4.8L92.1,17.6z M38.2,70.3h63.9v8.1h-72V17.6h8.1L38.2,70.3
		L38.2,70.3z"/>
</g>
</svg>
