<?xml version="1.0" encoding="utf-8"?>
<!-- Generator: Adobe Illustrator 19.1.1, SVG Export Plug-In . SVG Version: 6.00 Build 0)  -->
<svg version="1.1" id="Layer_1" xmlns="http://www.w3.org/2000/svg" xmlns:xlink="http://www.w3.org/1999/xlink" x="0px" y="0px"
	 viewBox="0 0 450 250" style="enable-background:new 0 0 450 250;" xml:space="preserve">
<style type="text/css">
	.st0{fill:#9FA0A3;}
	.st1{fill:#333637;}
	.st2{fill:#FFFFFF;}
	.st3{fill:#696A6C;}
	.st4{fill:#898A8C;}
	.st5{fill:#4F5153;}
	.st6{fill:#E1E1E2;}
	.st7{fill:#333737;}
	.st8{fill:#EAA169;}
	.st9{fill:#FAD1B6;}
	.st10{fill:#343737;}
	.st11{fill:#B09C84;}
	.st12{fill:#D38262;}
	.st13{fill:#F3D56D;}
	.st14{fill:#8C8D8F;}
	.st15{fill:#FFF8EC;}
	.st16{fill:#8CBFDE;}
	.st17{fill:#717275;}
	.st18{fill:#66676A;}
	.st19{fill:#E5AD54;}
	.st20{fill:#6B6D6F;}
	.st21{fill:#3D3F41;}
	.st22{fill:#C9C8CA;}
	.st23{fill:#99C6EC;}
	.st24{fill:#6A97CC;}
	.st25{fill:#E5AD53;}
	.st26{fill:#FDEE97;}
</style>
<g>
	<g>
		<g>
			<g>
				<path class="st0" d="M301.2,229.7H148.8c-4,0-7.3-3.3-7.3-7.3v-80.9c0-4,3.3-7.3,7.3-7.3h152.5c4,0,7.3,3.3,7.3,7.3v80.9
					C308.5,226.4,305.3,229.7,301.2,229.7z"/>
			</g>
			<g>
				<path class="st1" d="M301.2,229.7v-0.5H148.8c-1.9,0-3.5-0.8-4.8-2c-1.2-1.2-2-2.9-2-4.8v-80.9c0-1.9,0.8-3.5,2-4.8
					c1.2-1.2,2.9-2,4.8-2h152.5c1.9,0,3.5,0.8,4.8,2c1.2,1.2,2,2.9,2,4.8v80.9c0,1.9-0.8,3.5-2,4.8c-1.2,1.2-2.9,2-4.8,2V229.7v0.5
					c4.3,0,7.8-3.5,7.8-7.8v-80.9c0-4.3-3.5-7.8-7.8-7.8H148.8c-4.3,0-7.8,3.5-7.8,7.8v80.9c0,4.3,3.5,7.8,7.8,7.8h152.5V229.7z"/>
			</g>
			<g>
				<rect x="150.7" y="142.3" class="st2" width="148.6" height="79.3"/>
			</g>
			<g>
				<path class="st3" d="M250,248.2h-50.3l4.4-2.2c1.5-0.8,2.5-2.3,2.5-4.1v-12.3h36.6v12.4c0,1.7,1,3.3,2.6,4.1L250,248.2z"/>
			</g>
			<g>
				<path class="st1" d="M250,248.2v-0.5h-48l2.3-1.2c1.7-0.9,2.8-2.6,2.8-4.5v-11.7h35.5v11.8c0,2,1.1,3.7,2.9,4.6l4.3,2.1
					L250,248.2v-0.5V248.2l0.2-0.5l-4.3-2.1c-1.4-0.7-2.3-2.1-2.3-3.6v-12.9h-37.7V242c0,1.5-0.8,2.9-2.2,3.6l-6.4,3.2h55l-2.2-1
					L250,248.2z"/>
			</g>
			<g>
				<rect x="188.1" y="245.5" class="st4" width="72.8" height="2.7"/>
			</g>
			<g>
				<polygon class="st1" points="261,248.2 261,247.7 188.7,247.7 188.7,246 260.4,246 260.4,248.2 261,248.2 261,247.7 261,248.2 
					261.5,248.2 261.5,244.9 187.6,244.9 187.6,248.8 261.5,248.8 261.5,248.2 				"/>
			</g>
			<g>
				<rect x="207.2" y="230.2" class="st5" width="35.5" height="6.3"/>
			</g>
		</g>
		<g>
			<g>
				<path class="st1" d="M407.5,250c3.8,0,7.7,0,11.5,0c1.2,0,1.2-1.6,0-1.6c-3.8,0-7.7,0-11.5,0C406.3,248.3,406.3,250,407.5,250z"
					/>
			</g>
			<g>
				<path class="st1" d="M45,250c92.9-0.1,185.9-0.1,278.8-0.1c26.4,0,52.8,0,79.2,0.1c1.2,0,1.2-1.6,0-1.6
					c-92.9-0.1-185.8-0.1-278.7,0c-26.5,0-52.9,0-79.4,0.1C43.8,248.4,43.8,250,45,250z"/>
			</g>
			<g>
				<path class="st1" d="M30.5,250c3.5-0.1,7.1-0.1,10.6,0c1.2,0,1.2-1.6,0-1.6c-3.5-0.1-7.1-0.1-10.6,0
					C29.3,248.4,29.3,250,30.5,250z"/>
			</g>
		</g>
		<g>
			<g>
				<path class="st1" d="M240.1,116.6c-6.1,0-12.2-0.1-18.3-0.1c-0.8,0-0.8,1.2,0,1.2c6.1,0,12.2,0.1,18.3,0.1
					C240.9,117.9,240.9,116.6,240.1,116.6z"/>
			</g>
			<g>
				<path class="st1" d="M245.5,116.5c-0.9,0-1.8,0.1-2.7,0.1c-0.8,0-0.8,1.3,0,1.2c0.9,0,1.8-0.1,2.7-0.1
					C246.3,117.7,246.3,116.5,245.5,116.5z"/>
			</g>
			<g>
				<path class="st1" d="M251.2,116.5c-0.9,0-1.8,0-2.7,0c-0.8,0-0.8,1.2,0,1.2c0.9,0,1.8,0,2.7,0C252,117.7,252,116.5,251.2,116.5z
					"/>
			</g>
		</g>
		<g>
			<g>
				<path class="st1" d="M379.2,160h0.6c0-0.8,0.7-1.5,1.5-1.5c0.8,0,1.5,0.7,1.5,1.5c0,0.8-0.7,1.5-1.5,1.5c-0.8,0-1.5-0.7-1.5-1.5
					H379.2h-0.6c0,1.5,1.2,2.7,2.7,2.7c1.5,0,2.7-1.2,2.7-2.7c0-1.5-1.2-2.7-2.7-2.7c-1.5,0-2.7,1.2-2.7,2.7H379.2z"/>
			</g>
		</g>
		<g>
			<g>
				<path class="st1" d="M88.9,157.4h0.6c0-0.8,0.7-1.5,1.5-1.5c0.8,0,1.5,0.7,1.5,1.5c0,0.8-0.7,1.5-1.5,1.5
					c-0.8,0-1.5-0.7-1.5-1.5H88.9h-0.6c0,1.5,1.2,2.7,2.7,2.7c1.5,0,2.7-1.2,2.7-2.7c0-1.5-1.2-2.7-2.7-2.7c-1.5,0-2.7,1.2-2.7,2.7
					H88.9z"/>
			</g>
		</g>
		<g>
			<g>
				<path class="st1" d="M81.9,194c8.7,0,17.5,0.1,26.2,0.1c0.8,0,0.8-1.2,0-1.2c-8.7,0-17.5-0.1-26.2-0.1
					C81.1,192.8,81.1,194,81.9,194z"/>
			</g>
			<g>
				<path class="st1" d="M74.1,194.1c1.3,0,2.6-0.1,3.8-0.1c0.8,0,0.8-1.3,0-1.2c-1.3,0-2.6,0.1-3.8,0.1
					C73.3,192.9,73.3,194.1,74.1,194.1z"/>
			</g>
			<g>
				<path class="st1" d="M65.9,194.1c1.3,0,2.6,0,3.9,0c0.8,0,0.8-1.2,0-1.2c-1.3,0-2.6,0-3.9,0C65.1,192.9,65.1,194.1,65.9,194.1z"
					/>
			</g>
			<g>
				<path class="st1" d="M60.9,193.5h-0.6c0,0.8-0.7,1.5-1.5,1.5c-0.8,0-1.5-0.7-1.5-1.5c0-0.8,0.7-1.5,1.5-1.5
					c0.8,0,1.5,0.7,1.5,1.5H60.9h0.6c0-1.5-1.2-2.7-2.7-2.7c-1.5,0-2.7,1.2-2.7,2.7c0,1.5,1.2,2.7,2.7,2.7c1.5,0,2.7-1.2,2.7-2.7
					H60.9z"/>
			</g>
		</g>
		<g>
			<g>
				<path class="st1" d="M396.6,226.5c-6.1,0-12.2-0.1-18.3-0.1c-0.8,0-0.8,1.2,0,1.2c6.1,0,12.2,0.1,18.3,0.1
					C397.4,227.8,397.4,226.5,396.6,226.5z"/>
			</g>
			<g>
				<path class="st1" d="M402,226.4c-0.9,0-1.8,0.1-2.7,0.1c-0.8,0-0.8,1.3,0,1.2c0.9,0,1.8-0.1,2.7-0.1
					C402.8,227.6,402.8,226.4,402,226.4z"/>
			</g>
			<g>
				<path class="st1" d="M407.7,226.4c-0.9,0-1.8,0-2.7,0c-0.8,0-0.8,1.2,0,1.2c0.9,0,1.8,0,2.7,0
					C408.5,227.6,408.5,226.4,407.7,226.4z"/>
			</g>
		</g>
		<g>
			<g>
				<path class="st1" d="M85.8,138.5c8.7,0,17.5,0.1,26.2,0.1c0.8,0,0.8-1.2,0-1.2c-8.7,0-17.5-0.1-26.2-0.1
					C85,137.3,85,138.5,85.8,138.5z"/>
			</g>
			<g>
				<path class="st1" d="M78,138.6c1.3,0,2.6-0.1,3.8-0.1c0.8,0,0.8-1.3,0-1.2c-1.3,0-2.6,0.1-3.8,0.1
					C77.2,137.4,77.2,138.7,78,138.6z"/>
			</g>
			<g>
				<path class="st1" d="M69.8,138.6c1.3,0,2.6,0,3.9,0c0.8,0,0.8-1.2,0-1.2c-1.3,0-2.6,0-3.9,0C69,137.4,69,138.6,69.8,138.6z"/>
			</g>
		</g>
		<g>
			<g>
				<path class="st1" d="M366.4,196.5c8.1,0,16.2-0.1,24.4-0.1c0.8,0,0.8-1.2,0-1.2c-8.1,0-16.2,0.1-24.4,0.1
					C365.6,195.3,365.6,196.5,366.4,196.5z"/>
			</g>
			<g>
				<path class="st1" d="M344.5,196.5c5.9,0,11.7,0,17.6,0c0.8,0,0.8-1.2,0-1.2c-5.9,0-11.7,0-17.6,0
					C343.7,195.3,343.7,196.5,344.5,196.5z"/>
			</g>
		</g>
		<g>
			<g>
				<path class="st1" d="M176.1,80c-8.7,0-17.5-0.1-26.2-0.1c-0.8,0-0.8,1.2,0,1.2c8.7,0,17.5,0.1,26.2,0.1
					C176.9,81.2,176.9,80,176.1,80z"/>
			</g>
			<g>
				<path class="st1" d="M183.9,79.9c-1.3,0-2.6,0.1-3.8,0.1c-0.8,0-0.8,1.3,0,1.2c1.3,0,2.6-0.1,3.8-0.1
					C184.7,81.1,184.7,79.8,183.9,79.9z"/>
			</g>
			<g>
				<path class="st1" d="M192.1,79.9c-1.3,0-2.6,0-3.9,0c-0.8,0-0.8,1.2,0,1.2c1.3,0,2.6,0,3.9,0C192.9,81.1,192.9,79.9,192.1,79.9z
					"/>
			</g>
			<g>
				<path class="st1" d="M197.1,80.5h0.6c0-0.8,0.7-1.5,1.5-1.5c0.8,0,1.5,0.7,1.5,1.5c0,0.8-0.7,1.5-1.5,1.5
					c-0.8,0-1.5-0.7-1.5-1.5H197.1h-0.6c0,1.5,1.2,2.7,2.7,2.7c1.5,0,2.7-1.2,2.7-2.7c0-1.5-1.2-2.7-2.7-2.7c-1.5,0-2.7,1.2-2.7,2.7
					H197.1z"/>
			</g>
		</g>
		<g>
			<g>
				<path class="st6" d="M150.7,200.8c0,0,0.1,12.5-9.1,12.5c-9.2,0-10-12.5-10-12.5l2.6-1v-11.5h13.9V200L150.7,200.8z"/>
			</g>
			<g>
				<path class="st7" d="M150.7,200.8l-0.5,0v0c0,0.3,0,3.3-1.1,6.3c-0.6,1.5-1.4,2.9-2.6,3.9c-1.2,1-2.7,1.7-4.9,1.7
					c-2.2,0-3.8-0.7-5.1-1.8c-1.9-1.6-3-4.2-3.6-6.3c-0.3-1.1-0.5-2-0.6-2.7c-0.1-0.3-0.1-0.6-0.1-0.8c0-0.1,0-0.2,0-0.2l0-0.1
					l-0.5,0l0.2,0.5l2.9-1.1v-11.3h12.8v11.6l3.1,0.9L150.7,200.8l-0.5,0L150.7,200.8l0.1-0.5l-2.3-0.6v-11.9h-15v11.7l-2.6,1l0,0.4
					c0,0,0.2,3.2,1.6,6.4c0.7,1.6,1.7,3.2,3.2,4.5c1.5,1.2,3.4,2.1,5.8,2.1c2.4,0,4.2-0.8,5.6-2c2.1-1.8,3-4.5,3.6-6.7
					c0.5-2.2,0.5-4.1,0.5-4.3v0l0-0.4l-0.4-0.1L150.7,200.8z"/>
			</g>
			<g>
				<path class="st8" d="M169.4,248.4h-56.5v-28.2c0-10.8,8.7-19.5,19.5-19.5c0,0,2,9.3,9.2,9.3s8.3-9.3,8.3-9.3
					c10.8,0,19.5,8.7,19.5,19.5V248.4z"/>
			</g>
			<g>
				<path class="st9" d="M131.8,201.3c0,0-6.2-0.3-11.1,4c-4.8,4.3-7.3,5.9-7.3,15.5c0,9.6,0,14.9,0,14.9s0.4-19.9,7.1-26.7
					C127.3,202.1,131.8,201.3,131.8,201.3z"/>
			</g>
			<g>
				<path class="st9" d="M150.6,201.3c0,0,6.2-0.3,11.1,4c4.8,4.3,7.3,5.9,7.3,15.5c0,9.6,0,14.9,0,14.9s-0.3-20.1-7-27
					C155.2,201.9,150.6,201.3,150.6,201.3z"/>
			</g>
			<g>
				<path class="st7" d="M169.4,248.4v-0.5h-56v-27.6c0-5.2,2.1-10,5.5-13.4c3.4-3.4,8.2-5.5,13.4-5.5v-0.5l-0.5,0.1
					c0,0,0.5,2.4,2,4.8c0.7,1.2,1.7,2.4,3,3.3c1.3,0.9,2.9,1.6,4.8,1.6c1.9,0,3.5-0.6,4.7-1.6c1.8-1.4,2.8-3.5,3.4-5.1
					c0.6-1.7,0.7-3,0.7-3.1l-0.5-0.1v0.5c5.2,0,10,2.1,13.4,5.5c3.4,3.4,5.5,8.2,5.5,13.4v28.2H169.4v-0.5V248.4h0.5v-28.2
					c0-11.1-9-20-20-20h-0.5l-0.1,0.5l0,0c0,0.2-0.3,2.5-1.5,4.6c-0.6,1.1-1.3,2.1-2.4,2.9c-1,0.8-2.3,1.3-3.9,1.3
					c-1.7,0-3.1-0.5-4.2-1.3c-1.7-1.2-2.8-3.1-3.5-4.7c-0.4-0.8-0.6-1.5-0.8-2c-0.1-0.3-0.1-0.5-0.2-0.6c0-0.1,0-0.1,0-0.2l0,0
					l-0.1-0.4h-0.4c-11.1,0-20,9-20,20v28.7H170v-0.5H169.4z"/>
			</g>
			<g>
				<path class="st7" d="M118,170.9c0,0-2.9-19.4-0.4-22.4c2.5-3,7.8-4.9,7.8-4.9s2.5-3.8,4.5-4.4c2-0.6,16.7-1.6,23.3,0.6
					c7.4,2.5,12.8,18.1,12.2,21.3c-0.6,3.2-1.6,9.8-1.6,9.8l-17.2,2.5L118,170.9z"/>
			</g>
			<g>
				<circle class="st2" cx="120.4" cy="173.4" r="3.5"/>
			</g>
			<g>
				<path class="st10" d="M123.9,173.4h-0.5c0,0.8-0.3,1.5-0.9,2.1c-0.5,0.5-1.3,0.9-2.1,0.9c-0.8,0-1.5-0.3-2.1-0.9
					c-0.5-0.5-0.9-1.3-0.9-2.1c0-0.8,0.3-1.5,0.9-2.1c0.5-0.5,1.3-0.9,2.1-0.9c0.8,0,1.5,0.3,2.1,0.9c0.5,0.5,0.9,1.3,0.9,2.1H123.9
					h0.5c0-2.2-1.8-4-4-4c-2.2,0-4,1.8-4,4c0,2.2,1.8,4,4,4c2.2,0,4-1.8,4-4H123.9z"/>
			</g>
			<g>
				<circle class="st2" cx="161.5" cy="173.4" r="3.5"/>
			</g>
			<g>
				<path class="st10" d="M164.9,173.4h-0.5c0,0.8-0.3,1.5-0.9,2.1c-0.5,0.5-1.3,0.9-2.1,0.9c-0.8,0-1.5-0.3-2.1-0.9
					c-0.5-0.5-0.9-1.3-0.9-2.1c0-0.8,0.3-1.5,0.9-2.1c0.5-0.5,1.3-0.9,2.1-0.9c0.8,0,1.5,0.3,2.1,0.9c0.5,0.5,0.9,1.3,0.9,2.1H164.9
					h0.5c0-2.2-1.8-4-4-4c-2.2,0-4,1.8-4,4c0,2.2,1.8,4,4,4c2.2,0,4-1.8,4-4H164.9z"/>
			</g>
			<g>
				<path class="st2" d="M162.6,164.7c0,15.6-6.9,28.2-21.5,28.2c-14.6,0-21.5-12.6-21.5-28.2c0-15.6,9.6-23.1,21.5-23.1
					C153,141.6,162.6,149.1,162.6,164.7z"/>
			</g>
			<g>
				<path class="st7" d="M162.6,164.7h-0.5c0,7.7-1.7,14.7-5.2,19.7c-1.7,2.5-3.9,4.5-6.5,5.9c-2.6,1.4-5.7,2.2-9.2,2.2
					c-3.6,0-6.6-0.8-9.2-2.2c-3.9-2.1-6.8-5.5-8.8-10c-1.9-4.4-2.9-9.8-2.9-15.6c0-7.7,2.4-13.3,6.1-17c3.8-3.7,9-5.5,14.8-5.5
					c5.8,0,11,1.8,14.8,5.5c3.8,3.7,6.1,9.3,6.1,17H162.6h0.5c0-7.9-2.4-13.8-6.5-17.8c-4-3.9-9.5-5.8-15.6-5.8
					c-6,0-11.6,1.9-15.6,5.8c-4,3.9-6.5,9.9-6.5,17.8c0,7.9,1.7,15,5.4,20.3c1.8,2.6,4.1,4.8,6.9,6.2c2.8,1.5,6,2.3,9.8,2.3
					c3.7,0,7-0.8,9.8-2.3c4.2-2.2,7.2-5.9,9.3-10.5c2-4.6,3-10.1,3-16H162.6z"/>
			</g>
			<g>
				<path class="st2" d="M143.4,168.5v3.8c0,1.6-1.3,2.9-2.9,2.9h-1.4"/>
			</g>
			<g>
				<path class="st11" d="M142.8,168.5v3.8c0,1.3-1,2.3-2.3,2.3h-1.4v1.1h1.4c1.9,0,3.4-1.5,3.4-3.4v-3.8H142.8L142.8,168.5z"/>
			</g>
			<g>
				<path class="st12" d="M134.2,181.2h13.9c0,0-2.3,5.4-7.3,5.4C136.3,186.6,134.2,181.2,134.2,181.2z"/>
			</g>
			<g>
				<circle class="st7" cx="131.6" cy="169.6" r="1.5"/>
			</g>
			<g>
				<circle class="st7" cx="152" cy="169.6" r="1.5"/>
			</g>
			<g>
				<path class="st7" d="M149.2,166.4L149.2,166.4c0,0,1.6-0.8,3.1-0.8c0.8,0,1.6,0.2,2.3,0.7l0.9-1.1c-1-0.8-2.1-1-3.1-1
					c-2,0-3.7,0.9-3.8,1L149.2,166.4z"/>
			</g>
			<g>
				<path class="st7" d="M128.4,166.4L128.4,166.4c0,0,1.6-0.8,3.1-0.8c0.8,0,1.6,0.2,2.3,0.7l0.9-1.1c-1-0.8-2.1-1-3.1-1
					c-2,0-3.7,0.9-3.8,1L128.4,166.4z"/>
			</g>
			<g>
				<path class="st7" d="M123,151.6c0,0,19.6,7.5,25,8.4c5.5,1,19.8,0,19.8,0s-5-14-9.8-15.9c-4.9-1.8-21.3-4.2-25.2-3.1
					C128.8,142.2,123,151.6,123,151.6z"/>
			</g>
			<g>
				<path class="st5" d="M123,151.6c0,0,2.8,0.7,7,2c2.1,0.6,4.5,1.4,7.1,2.2c1.3,0.4,2.6,0.8,4,1.2c1.3,0.4,2.7,0.9,4.1,1.2
					c0.7,0.2,1.4,0.4,2,0.6l1,0.2c0.3,0.1,0.7,0.1,1,0.2c1.3,0.1,2.7,0.3,4,0.3c1.3,0.1,2.6,0.1,3.9,0.2c1.2,0,2.4,0.1,3.5,0.1
					c2.2,0.1,4,0.1,5.2,0.2c1.3,0.1,2,0.1,2,0.1s-0.7,0.1-2,0.3c-1.3,0.2-3.1,0.4-5.2,0.6c-1.1,0.1-2.3,0.2-3.5,0.3
					c-1.2,0.1-2.6,0.1-3.9,0.1c-1.4,0-2.8,0-4.3-0.2c-0.4-0.1-0.7-0.1-1.1-0.2l-1.1-0.2c-0.7-0.2-1.4-0.4-2.1-0.6
					c-1.4-0.4-2.8-0.9-4.1-1.3c-1.4-0.4-2.7-1-3.9-1.4c-1.3-0.5-2.5-1-3.6-1.4c-1.2-0.5-2.2-0.9-3.2-1.4
					C125.6,153,123,151.6,123,151.6z"/>
			</g>
			<g>
				<rect x="122.6" y="221.1" class="st7" width="1.1" height="26.8"/>
			</g>
			<g>
				<rect x="159.8" y="221.1" class="st7" width="1.1" height="26.8"/>
			</g>
		</g>
		<g>
			<g>
				<path class="st1" d="M345,135.8c8.7,0,17.5,0.1,26.2,0.1c0.8,0,0.8-1.2,0-1.2c-8.7,0-17.5-0.1-26.2-0.1
					C344.2,134.5,344.2,135.8,345,135.8z"/>
			</g>
			<g>
				<path class="st1" d="M337.2,135.9c1.3,0,2.6-0.1,3.8-0.1c0.8,0,0.8-1.3,0-1.2c-1.3,0-2.6,0.1-3.8,0.1
					C336.4,134.7,336.4,135.9,337.2,135.9z"/>
			</g>
			<g>
				<path class="st1" d="M329,135.9c1.3,0,2.6,0,3.9,0c0.8,0,0.8-1.2,0-1.2c-1.3,0-2.6,0-3.9,0C328.2,134.7,328.2,135.9,329,135.9z"
					/>
			</g>
			<g>
				<path class="st1" d="M324,135.3h-0.6c0,0.8-0.7,1.5-1.5,1.5c-0.8,0-1.5-0.7-1.5-1.5c0-0.8,0.7-1.5,1.5-1.5
					c0.8,0,1.5,0.7,1.5,1.5H324h0.6c0-1.5-1.2-2.7-2.7-2.7c-1.5,0-2.7,1.2-2.7,2.7c0,1.5,1.2,2.7,2.7,2.7c1.5,0,2.7-1.2,2.7-2.7H324
					z"/>
			</g>
		</g>
		<g>
			<g>
				<path class="st1" d="M300,116.6c-6.1,0-12.2-0.1-18.3-0.1c-0.8,0-0.8,1.2,0,1.2c6.1,0,12.2,0.1,18.3,0.1
					C300.8,117.9,300.8,116.6,300,116.6z"/>
			</g>
			<g>
				<path class="st1" d="M305.4,116.5c-0.9,0-1.8,0.1-2.7,0.1c-0.8,0-0.8,1.3,0,1.2c0.9,0,1.8-0.1,2.7-0.1
					C306.2,117.7,306.2,116.5,305.4,116.5z"/>
			</g>
			<g>
				<path class="st1" d="M311.2,116.5c-0.9,0-1.8,0-2.7,0c-0.8,0-0.8,1.2,0,1.2c0.9,0,1.8,0,2.7,0C312,117.7,312,116.5,311.2,116.5z
					"/>
			</g>
		</g>
		<g>
			<g>
				<path class="st1" d="M307,83.8h0.6c0-0.8,0.7-1.5,1.5-1.5c0.8,0,1.5,0.7,1.5,1.5c0,0.8-0.7,1.5-1.5,1.5c-0.8,0-1.5-0.7-1.5-1.5
					H307h-0.6c0,1.5,1.2,2.7,2.7,2.7c1.5,0,2.7-1.2,2.7-2.7c0-1.5-1.2-2.7-2.7-2.7c-1.5,0-2.7,1.2-2.7,2.7H307z"/>
			</g>
		</g>
		<g>
			<polygon class="st1" points="323.7,181.5 323.7,179.1 322.6,179.1 322.6,181.5 320.3,181.5 320.3,182.5 322.6,182.5 322.6,184.8 
				323.7,184.8 323.7,182.5 326,182.5 326,181.5 			"/>
		</g>
		<g>
			<polygon class="st1" points="175.2,105.5 175.2,103.2 174.2,103.2 174.2,105.5 171.8,105.5 171.8,106.6 174.2,106.6 174.2,108.9 
				175.2,108.9 175.2,106.6 177.5,106.6 177.5,105.5 			"/>
		</g>
		<g>
			<polygon class="st1" points="226.5,87.8 226.5,85.5 225.5,85.5 225.5,87.8 223.1,87.8 223.1,88.8 225.5,88.8 225.5,91.2 
				226.5,91.2 226.5,88.8 228.8,88.8 228.8,87.8 			"/>
		</g>
		<g>
			<polygon class="st1" points="114.6,119.9 114.6,117.6 113.6,117.6 113.6,119.9 111.3,119.9 111.3,121 113.6,121 113.6,123.3 
				114.6,123.3 114.6,121 117,121 117,119.9 			"/>
		</g>
		<g>
			<g>
				<path class="st13" d="M153.2,102.4c0-6.9-5.6-12.4-12.5-12.3c-6.4,0.1-11.7,5.3-12,11.8c-0.2,4.1,1.7,7.8,4.6,10.1
					c1.7,1.3,2.7,3.3,2.7,5.5l0,0.2l10.2,0l0-0.5c0-2.1,1-4,2.6-5.3C151.5,109.5,153.2,106.2,153.2,102.4z"/>
			</g>
			<g>
				<path class="st1" d="M153.2,102.4l0.5,0l0,0c0-7.1-5.7-12.8-12.8-12.8c-0.1,0-0.2,0-0.3,0c-6.7,0.1-12.2,5.5-12.5,12.3
					c0,0.2,0,0.4,0,0.5c0,4,1.9,7.7,4.8,10c1.6,1.2,2.5,3.1,2.5,5.1v0v0l0,0.2l0,0.5l11.3,0l0-1c0-1.9,0.9-3.7,2.4-4.9
					c2.8-2.3,4.6-5.9,4.6-9.8L153.2,102.4l-0.5,0c0,3.6-1.7,6.9-4.3,9c-1.7,1.4-2.7,3.5-2.7,5.7v0l-9.7,0l0,0.5l0.5,0l0-0.2v0v0
					c0-2.3-1.1-4.4-2.9-5.9c-2.7-2.2-4.4-5.5-4.4-9.2c0-0.2,0-0.3,0-0.5c0.2-6.2,5.3-11.1,11.5-11.3c0.1,0,0.2,0,0.2,0
					c3.3,0,6.2,1.3,8.3,3.4c2.1,2.1,3.4,5.1,3.4,8.3l0,0L153.2,102.4z"/>
			</g>
			<g>
				
					<rect x="135.7" y="116.4" transform="matrix(1 3.036879e-003 -3.036879e-003 1 0.3626 -0.428)" class="st14" width="10.8" height="5.7"/>
			</g>
			<g>
				<polygon class="st1" points="146.5,122 146.5,121.5 136.2,121.5 136.2,116.9 146,116.9 146,122 146.5,122 146.5,121.5 
					146.5,122 147,122 147,115.9 135.2,115.8 135.2,122.5 147,122.5 147,122 				"/>
			</g>
		</g>
		<g>
			<g>
				<polyline class="st1" points="245.6,95.2 275.8,95.2 275.8,94.2 245.6,94.2 				"/>
			</g>
			<g>
				<polyline class="st1" points="245.6,100.1 271.9,100.1 271.9,99.1 245.6,99.1 				"/>
			</g>
			<g>
				<polyline class="st1" points="245.6,106 267.4,106 267.4,105 245.6,105 				"/>
			</g>
		</g>
		<g>
			<g>
				<circle class="st16" cx="201.8" cy="176.1" r="20.4"/>
			</g>
			<g>
				<path class="st13" d="M222.2,176.1h-20.4v-20.4C213.1,155.7,222.2,164.8,222.2,176.1z"/>
			</g>
		</g>
		<g>
			<g>
				<path class="st7" d="M73.8,218.2V212c0-0.7,0.3-1.4,0.8-1.9c0.5-0.5,1.2-0.8,1.9-0.8h12.9c0.7,0,1.4,0.3,1.9,0.8
					c0.5,0.5,0.8,1.2,0.8,1.9v6.2h1.1l0-6.2c0-2.1-1.7-3.8-3.8-3.8H76.5c-2.1,0-3.8,1.7-3.8,3.8v6.2H73.8L73.8,218.2z"/>
			</g>
			<g>
				<rect x="59.6" y="214.1" class="st17" width="46.5" height="35.4"/>
			</g>
			<g>
				<polygon class="st7" points="106,249.6 106,249 60.1,249 60.1,214.7 105.5,214.7 105.5,249.6 106,249.6 106,249 106,249.6 
					106.6,249.6 106.6,213.6 59,213.6 59,250.1 106.6,250.1 106.6,249.6 				"/>
			</g>
			<g>
				<rect x="59.6" y="214.1" class="st14" width="46.5" height="17.2"/>
			</g>
			<g>
				<polygon class="st10" points="106,231.3 106,230.8 60.1,230.8 60.1,214.6 105.5,214.6 105.5,231.3 106,231.3 106,230.8 
					106,231.3 106.6,231.3 106.6,213.5 59,213.5 59,231.9 106.6,231.9 106.6,231.3 				"/>
			</g>
			<g>
				<rect x="60.1" y="231.9" class="st18" width="45.4" height="6.7"/>
			</g>
			<g>
				<rect x="68.3" y="227.1" class="st19" width="4.7" height="8.5"/>
			</g>
			<g>
				<rect x="92.9" y="227.1" class="st19" width="4.7" height="8.5"/>
			</g>
		</g>
		<g>
			<g>
				<polygon class="st1" points="215,101.9 211.4,105.3 212.6,105.9 206.4,119 200.4,107.8 193.2,121.3 188.8,115 183.9,122.2 
					178.9,123 179,124.1 184.5,123.2 188.8,116.9 193.4,123.4 200.4,110.2 206.4,121.4 213.6,106.4 214.7,106.9 				"/>
			</g>
		</g>
		<g>
			<g>
				<path class="st1" d="M360.9,156.9l-21.9,0.2c-0.4,0-0.7-0.3-0.7-0.7l0,0c0-0.4,0.3-0.7,0.7-0.7l21.9-0.2c0.4,0,0.7,0.3,0.7,0.7
					l0,0C361.7,156.6,361.3,156.9,360.9,156.9z"/>
			</g>
			<g>
				<polygon class="st13" points="341.8,178.5 349.4,174.7 359,179.8 360.4,183.7 360.7,186 360.7,186.8 359.9,186.8 340.2,186.9 
					339.4,186.1 339.4,184.2 340.9,180.1 				"/>
			</g>
			<g>
				<path class="st13" d="M339.5,160l19.9,3.3c0,0-1.9,3.6-3,4.6c-1,1.1-4.2,3.4-4.2,3.4l-4,0c0,0-4.4-2.5-5.9-4.9
					C340.9,164.2,339.5,160,339.5,160z"/>
			</g>
			<g>
				<g>
					<path class="st1" d="M352.2,171.3l0.2,0.4c2.2-1.1,4.5-3.2,6.2-5.9c1.4-2.2,2.4-4.9,2.5-7.8c0-0.5-0.2-0.9-0.6-1.1
						c-0.2-0.1-0.4-0.2-0.7-0.2l-19.7,0.1c-0.4,0-0.8,0.2-1,0.6c-0.1,0.2-0.2,0.5-0.2,0.7c0.1,2.9,1.1,5.5,2.6,7.7
						c1.4,2.2,3.3,4,5.2,5.2c0.3,0.2,0.7,0.4,1,0.6l0,0c0.1,0.1,0.1,0.1,0.2,0.2c0,0.1,0,0.2,0,0.3c0,0.1-0.1,0.1-0.2,0.1
						c-2.2,1.1-4.5,3.2-6.2,5.9c-1.4,2.2-2.4,4.9-2.5,7.8c0,0.5,0.2,0.9,0.6,1.1c0.2,0.1,0.4,0.2,0.7,0.2l19.7-0.1
						c0.4,0,0.8-0.2,1-0.6c0.1-0.2,0.2-0.5,0.2-0.7c-0.1-2.9-1.1-5.5-2.6-7.7c-1.4-2.2-3.3-4-5.2-5.2c-0.3-0.2-0.7-0.4-1-0.6l0,0
						c-0.1-0.1-0.1-0.1-0.2-0.2c0-0.1,0-0.2,0-0.3c0-0.1,0.1-0.1,0.2-0.1L352.2,171.3l-0.2-0.4c-0.2,0.1-0.4,0.3-0.5,0.4
						c-0.2,0.3-0.2,0.6-0.2,0.9c0.1,0.3,0.3,0.6,0.6,0.8c0,0,0.1,0,0.1,0.1c0.3,0.2,0.6,0.3,1,0.5c1.8,1.1,3.5,2.8,4.9,4.9
						c1.4,2.1,2.3,4.6,2.4,7.3c0,0.1,0,0.2-0.1,0.2c-0.1,0.1-0.2,0.2-0.3,0.2l-19.7,0.1c-0.1,0-0.1,0-0.2-0.1
						c-0.1-0.1-0.2-0.2-0.2-0.3c0.1-2.7,1-5.2,2.3-7.3c1.6-2.5,3.8-4.5,5.8-5.6c0.2-0.1,0.4-0.3,0.5-0.4c0.2-0.3,0.2-0.6,0.2-0.9
						c-0.1-0.3-0.3-0.6-0.6-0.8c0,0-0.1,0-0.1-0.1c-0.3-0.2-0.6-0.3-1-0.5c-1.8-1.1-3.5-2.8-4.9-4.9c-1.4-2.1-2.3-4.6-2.4-7.3
						c0-0.1,0-0.2,0.1-0.2c0.1-0.1,0.2-0.2,0.3-0.2l19.7-0.1c0.1,0,0.1,0,0.2,0.1c0.1,0.1,0.2,0.2,0.2,0.3c-0.1,2.7-1,5.2-2.3,7.3
						c-1.6,2.5-3.8,4.5-5.8,5.6L352.2,171.3z"/>
				</g>
			</g>
			<g>
				<path class="st1" d="M361.2,188.6l-21.9,0.2c-0.4,0-0.7-0.3-0.7-0.7l0,0c0-0.4,0.3-0.7,0.7-0.7l21.9-0.2c0.4,0,0.7,0.3,0.7,0.7
					l0,0C361.9,188.3,361.6,188.6,361.2,188.6z"/>
			</g>
		</g>
		<g>
			<g>
				<rect x="216.3" y="204.9" class="st13" width="7.3" height="12.3"/>
			</g>
			<g>
				<rect x="227" y="201.7" class="st13" width="7.3" height="15.5"/>
			</g>
			<g>
				<rect x="237.1" y="202.3" class="st13" width="7.3" height="14.9"/>
			</g>
			<g>
				<rect x="246.9" y="196.5" class="st13" width="7.3" height="20.7"/>
			</g>
		</g>
		<g>
			<g>
				<path class="st20" d="M296.3,236.6h-50.1c12-12.2,13.3-54.2,13.3-54.2h22.3C281.9,182.4,284.2,225.2,296.3,236.6z"/>
			</g>
			<g>
				<path class="st14" d="M266.8,236.6H251c12-12.2,13.3-54.2,13.3-54.2h3.7L266.8,236.6z"/>
			</g>
			<g>
				<rect x="261.2" y="166.5" class="st14" width="4.3" height="16.8"/>
			</g>
			<g>
				<path class="st1" d="M296.9,236h-0.3c-2.8-2.7-5.2-7.4-7.1-12.9c-2.9-8.4-4.6-18.6-5.7-26.7c-0.5-4.1-0.9-7.6-1.1-10.1
					c-0.1-1.3-0.2-2.3-0.2-2.9c0-0.7-0.1-1.1-0.1-1.1l0-0.5H259l0,0.5c0,0,0,0.2,0,0.5c-0.1,2.3-0.6,12.8-2.5,24.2
					c-0.9,5.7-2.2,11.6-4,16.7c-1.7,5.1-3.9,9.4-6.5,12.2h-0.3v13.7h51.2v-0.5V236z M253.9,223.1c2.7-8.5,4.3-18.7,5.1-26.7
					c0.7-6.6,1-11.8,1-13.4h21.3c0.1,2.3,0.8,11.8,2.7,22.4c1.1,6.1,2.5,12.5,4.4,18.2c1.7,5.1,3.9,9.5,6.6,12.5h-47.6
					C250.1,232.8,252.2,228.3,253.9,223.1z M295.8,248.6h-49v-11.5h49V248.6z"/>
			</g>
			<g>
				<path class="st20" d="M285.8,159.4v6.5h-9.6v-6.5h-9.3v6.5h-10.4v-6.5h-9.3v6.5v5v8.3c0,2.6,2.6,4.8,5.7,4.8h36.5
					c3.2,0,5.7-2.1,5.7-4.8v-8.3v-5v-6.5H285.8z"/>
			</g>
			<g>
				<path class="st1" d="M285.8,159.4h-0.5v5.9h-8.5v-6.5h-10.4v6.5H257l0-6.5h-10.4v7v5v8.3c0,1.5,0.7,2.8,1.9,3.8
					c1.1,0.9,2.7,1.5,4.4,1.5h36.5c1.7,0,3.3-0.6,4.4-1.5c1.1-0.9,1.9-2.3,1.9-3.8v-8.3v-5v-7h-10.4v0.5H285.8v0.5h8.8v5.9v5v8.3
					c0,1.1-0.5,2.2-1.5,2.9c-0.9,0.8-2.2,1.3-3.7,1.3h-36.5c-1.5,0-2.8-0.5-3.7-1.3c-0.9-0.8-1.5-1.8-1.5-2.9v-8.3v-5v-5.9h8.2
					l0,6.5h11.5v-6.5h8.2v6.5h10.7v-7H285.8v0.5V159.4z"/>
			</g>
			<g>
				<rect x="246.2" y="236.6" class="st21" width="50.1" height="12.6"/>
			</g>
			<g>
				<path class="st5" d="M289.8,183.6h-37.1c-2.6,0-5.2-2.3-5.2-5h47.1C294.6,181.3,292.4,183.6,289.8,183.6z"/>
			</g>
		</g>
		<g>
			<g>
				<rect x="315.9" y="233.3" class="st22" width="7.3" height="15.6"/>
				<path class="st1" d="M323.5,249.2h-7.9V233h7.9V249.2z M316.2,248.6h6.7v-14.9h-6.7V248.6z"/>
			</g>
			<g>
				<rect x="326.6" y="229.2" class="st23" width="7.3" height="19.7"/>
				<path class="st1" d="M334.2,249.2h-7.9v-20.4h7.9V249.2z M326.9,248.6h6.7v-19.1h-6.7V248.6z"/>
			</g>
			<g>
				<rect x="336.6" y="230" class="st24" width="7.3" height="18.9"/>
				<path class="st1" d="M344.3,249.2h-7.9v-19.5h7.9V249.2z M337,248.6h6.6v-18.2H337V248.6z"/>
			</g>
			<g>
				<rect x="346.5" y="222.6" class="st22" width="7.3" height="26.3"/>
				<path class="st1" d="M354.1,249.2h-7.9v-27h7.9V249.2z M346.8,248.6h6.7v-25.7h-6.7V248.6z"/>
			</g>
			<g>
				<rect x="356.5" y="212.8" class="st23" width="7.3" height="36.1"/>
				<path class="st1" d="M364.1,249.2h-7.9v-36.8h7.9V249.2z M356.8,248.6h6.7v-35.5h-6.7V248.6z"/>
			</g>
			<g>
				<line class="st25" x1="314.9" y1="231.3" x2="362.1" y2="205.6"/>
			</g>
			<g>
				<polyline class="st1" points="315.2,231.8 362.4,206.1 361.8,205.1 314.6,230.8 				"/>
			</g>
		</g>
		<g>
			<g>
				<g>
					<circle class="st25" cx="228.8" cy="38.2" r="21.9"/>
				</g>
				<g>
					<path class="st7" d="M228.8,60.5c-12.3,0-22.4-10-22.4-22.4c0-12.3,10-22.4,22.4-22.4c12.3,0,22.4,10,22.4,22.4
						C251.2,50.5,241.1,60.5,228.8,60.5z M228.8,16.6c-11.9,0-21.5,9.7-21.5,21.5c0,11.9,9.7,21.5,21.5,21.5
						c11.9,0,21.5-9.7,21.5-21.5C250.4,26.3,240.7,16.6,228.8,16.6z"/>
				</g>
			</g>
			<g>
				<circle class="st26" cx="228.8" cy="38.2" r="16.8"/>
			</g>
			<g>
				<path class="st1" d="M227.4,48.9v-2.5c-1.8-0.1-3.5-0.6-4.5-1.1l0.8-3.1c1.1,0.6,2.7,1.2,4.4,1.2c1.5,0,2.5-0.6,2.5-1.6
					c0-1-0.8-1.6-2.8-2.3c-2.8-0.9-4.7-2.3-4.7-4.8c0-2.3,1.6-4.1,4.4-4.7v-2.5h2.6v2.3c1.8,0.1,2.9,0.4,3.8,0.9l-0.8,3
					c-0.7-0.3-1.9-0.9-3.8-0.9c-1.7,0-2.3,0.7-2.3,1.5c0,0.9,0.9,1.4,3.2,2.3c3.1,1.1,4.4,2.6,4.4,4.9c0,2.3-1.7,4.3-4.7,4.9v2.7
					H227.4z"/>
			</g>
		</g>
		<g>
			<g>
				<line class="st25" x1="242.9" y1="2.4" x2="238.2" y2="14.3"/>
			</g>
			<g>
				<polyline class="st7" points="242.4,2.2 237.7,14.1 238.7,14.5 243.4,2.6 				"/>
			</g>
			<g>
				<line class="st25" x1="219.5" y1="61.8" x2="214.8" y2="73.6"/>
			</g>
			<g>
				<polyline class="st7" points="218.9,61.6 214.3,73.4 215.3,73.8 220,62 				"/>
			</g>
			<g>
				<line class="st25" x1="264.4" y1="52.1" x2="252.6" y2="47.4"/>
			</g>
			<g>
				<polyline class="st7" points="264.6,51.6 252.8,46.9 252.4,47.9 264.2,52.6 				"/>
			</g>
			<g>
				<line class="st25" x1="205.1" y1="28.7" x2="193.2" y2="24"/>
			</g>
			<g>
				<polyline class="st7" points="205.3,28.2 193.4,23.5 193,24.5 204.9,29.2 				"/>
			</g>
			<g>
				<line class="st25" x1="263.9" y1="22.8" x2="252.2" y2="27.9"/>
			</g>
			<g>
				<polyline class="st7" points="263.7,22.3 252,27.4 252.4,28.4 264.2,23.3 				"/>
			</g>
			<g>
				<line class="st25" x1="205.4" y1="48.2" x2="193.7" y2="53.3"/>
			</g>
			<g>
				<polyline class="st7" points="205.2,47.7 193.5,52.8 193.9,53.8 205.6,48.7 				"/>
			</g>
			<g>
				<line class="st25" x1="244.1" y1="73.2" x2="239" y2="61.4"/>
			</g>
			<g>
				<polyline class="st7" points="244.6,72.9 239.5,61.2 238.5,61.7 243.6,73.4 				"/>
			</g>
			<g>
				<line class="st25" x1="218.7" y1="14.6" x2="213.6" y2="2.9"/>
			</g>
			<g>
				<polyline class="st7" points="219.2,14.4 214.1,2.7 213.1,3.1 218.2,14.9 				"/>
			</g>
			<g>
				<polyline class="st7" points="228.3,-0.2 228.3,12.5 229.4,12.5 229.4,-0.2 				"/>
			</g>
			<g>
				<polyline class="st7" points="228.3,63.6 228.3,76.3 229.4,76.3 229.4,63.6 				"/>
			</g>
			<g>
				<polyline class="st7" points="267.1,37.5 254.3,37.5 254.3,38.6 267.1,38.6 				"/>
			</g>
			<g>
				<polyline class="st7" points="203.3,37.5 190.5,37.5 190.5,38.6 203.3,38.6 				"/>
			</g>
			<g>
				<line class="st25" x1="255.9" y1="11" x2="246.9" y2="20"/>
			</g>
			<g>
				<polyline class="st7" points="255.5,10.6 246.5,19.6 247.3,20.4 256.3,11.4 				"/>
			</g>
			<g>
				<line class="st25" x1="210.8" y1="56.1" x2="201.8" y2="65.1"/>
			</g>
			<g>
				<polyline class="st7" points="210.4,55.7 201.4,64.7 202.1,65.5 211.2,56.5 				"/>
			</g>
			<g>
				<line class="st25" x1="255.9" y1="65.1" x2="246.9" y2="56.1"/>
			</g>
			<g>
				<polyline class="st7" points="256.3,64.7 247.3,55.7 246.5,56.5 255.5,65.5 				"/>
			</g>
			<g>
				<line class="st25" x1="210.8" y1="20" x2="201.8" y2="11"/>
			</g>
			<g>
				<polyline class="st7" points="211.2,19.6 202.1,10.6 201.4,11.4 210.4,20.4 				"/>
			</g>
		</g>
		<g>
			<polygon class="st7" points="125.4,150.6 122.1,170.7 119.7,170.7 119.1,153.4 123.9,149.8 			"/>
		</g>
	</g>
</g>
</svg>
