<?xml version="1.0" encoding="utf-8"?>
<!-- Generator: Adobe Illustrator 19.1.1, SVG Export Plug-In . SVG Version: 6.00 Build 0)  -->
<svg version="1.1" id="Layer_1" xmlns="http://www.w3.org/2000/svg" xmlns:xlink="http://www.w3.org/1999/xlink" x="0px" y="0px"
	 viewBox="22 -21.5 100 100" style="enable-background:new 22 -21.5 100 100;" xml:space="preserve">
<style type="text/css">
	.st0{fill:#333333;}
</style>
<g transform="translate(0,-1028.3622)">
	<path class="st0" d="M66.8,1030h8.3v6.2c3.3,1.1,6,3.4,7.4,6.8l-7.7,3.2c-0.7-1.6-2.9-2.8-5.1-2.2c-2.2,0.6-3.2,2.2-2.9,3.9
		c0.3,1.6,2.1,3.1,4.4,2.9h0.3l0,0c5.6,0.3,10.7,3.7,11.7,9.3c1.1,5.8-2.6,11.3-8.1,13.2v6.2h-8.3v-6.2c-3.3-1.1-6-3.4-7.4-6.8
		l7.7-3.2c0.7,1.6,2.9,2.8,5.1,2.2c2.2-0.6,3.2-2.2,2.9-3.9c-0.3-1.6-2.1-3.1-4.4-2.9h-0.3c-5.6-0.3-10.7-3.7-11.7-9.3
		c-1.1-5.8,2.6-11.3,8.1-13.2C66.8,1034.2,66.8,1032,66.8,1030L66.8,1030z"/>
	<path class="st0" d="M71.1,1006.9l-42.2,9.8v3.3c0,29.9-3.7,42.7,0.1,53.9c1.9,5.6,5.9,10.1,12.2,14.6c6.3,4.6,15.1,9.6,27.8,17
		l2.2,1.3l2.1-1.4c12.8-8.4,21.5-13.4,27.6-17.3c6.1-4,10.2-7.3,12.2-12.2s1.7-10.4,1.3-18.7s-1.3-19.9-1.2-37.1l0-3.3
		C99.2,1013.4,85.1,1010.1,71.1,1006.9L71.1,1006.9z M71.1,1015.4l33.9,7.9c0.1,15,0.7,26.7,1.1,34.2c0.4,8.2,0.3,12.6-0.7,15.2
		c-1,2.6-3.2,4.6-9,8.3c-5.3,3.4-14.1,8.6-25.4,16c-11.2-6.5-19.7-11.4-24.9-15.2c-5.6-4.1-8-7-9.2-10.6c-2.4-6.9-0.1-20.4,0.2-47.9
		C48.4,1020.7,59.7,1018.1,71.1,1015.4z"/>
</g>
</svg>
