<?xml version="1.0" encoding="utf-8"?>
<!-- Generator: Adobe Illustrator 19.1.1, SVG Export Plug-In . SVG Version: 6.00 Build 0)  -->
<svg version="1.1" id="Layer_1" xmlns="http://www.w3.org/2000/svg" xmlns:xlink="http://www.w3.org/1999/xlink" x="0px" y="0px"
	 viewBox="22 -21.5 100 100" style="enable-background:new 22 -21.5 100 100;" xml:space="preserve">
<style type="text/css">
	.st0{fill:#333333;}
</style>
<g>
	<path class="st0" d="M68.4,78.2c-24.7-2-43.5-23.8-42-48.6C27.2,14,34.4,2,47.2-6.7c0.7-0.5,1.4-0.9,2.1-1.4
		c0.1-0.1,0.2-0.3,0.3-0.4L50.5-9c-1.4-1.8-2.8-3.6-4.1-5.4c-1-1.5-2-3-0.8-4.9c1.2-1.9,2.8-1.9,4.9-1.7c9.4,1.1,18.7,2,28.1,3
		c3.6,0.4,5,3.2,2.9,6.3C76.8-5,72,1.7,67.2,8.4c-2.1,2.9-4.9,2.8-6.9-0.3c-1.1-1.6-2.1-3.3-3.1-5c-0.8-1.5-1.6-1.6-3-0.7
		c-6.8,4.3-11.7,10.2-14.4,17.7c-6.1,16.8,1.5,35.2,17.4,43.1c20,9.8,43.9-1.5,49-23.1c2.7-11.6-0.3-23-7.8-31.2
		c-1.3-1.4-1.8-3.5-1.3-5.3l0,0c1.2-4.4,6.8-5.8,9.9-2.4c8.8,9.9,13.1,23.5,11.2,37.3C115,62.3,93.6,80.2,68.4,78.2z"/>
	<path class="st0" d="M71.6,48l8.5-8.5c1-1,1.5-2.3,1.5-3.7V17.8c0-2.9-2.3-5.2-5.2-5.2l0,0c-2.9,0-5.2,2.3-5.2,5.2v15.8l-7,7
		c-2,2-2,5.4,0,7.4l0,0C66.2,50,69.5,50,71.6,48z"/>
</g>
</svg>
