<?xml version="1.0" encoding="utf-8"?>
<!-- Generator: Adobe Illustrator 19.1.1, SVG Export Plug-In . SVG Version: 6.00 Build 0)  -->
<svg version="1.1" id="Layer_1" xmlns="http://www.w3.org/2000/svg" xmlns:xlink="http://www.w3.org/1999/xlink" x="0px" y="0px"
	 viewBox="22 -21.5 100 100" style="enable-background:new 22 -21.5 100 100;" xml:space="preserve">
<style type="text/css">
	.st0{fill:#333333;}
</style>
<path class="st0" d="M121.9,9.3l-5.1,6.3c-0.2,0.2-0.2,0.5,0,0.7l5.1,6.2c0.4,0.5,0.1,1.3-0.6,1.3h-21.2c-0.1-0.5-0.2-1-0.4-1.4
	l-0.1-0.2l0.1-0.1c1.7-1.5,2.9-3.8,2.9-6.2c0-2.3-1-4.6-2.8-6.2l-0.1-0.1l0.1-0.1c0.2-0.5,0.4-1,0.5-1.6h21.1
	C122,8,122.3,8.8,121.9,9.3z M44,8H22.8c-0.7,0-1.1,0.8-0.6,1.3l5.1,6.2c0.2,0.2,0.2,0.5,0,0.7l-5.1,6.3c-0.4,0.5,0,1.3,0.6,1.3
	h21.1c0.1-0.5,0.3-1.1,0.5-1.6l0.1-0.1L44.4,22c-1.7-1.5-2.8-3.9-2.8-6.2s1-4.6,2.9-6.2l0.1-0.1l-0.1-0.1C44.2,8.9,44.1,8.5,44,8z
	 M43.3,51.6l-3.9-0.3L38,47.7c-0.3-0.7-1.2-0.7-1.5,0l-1.4,3.6l-3.9,0.3c-0.7,0.1-1,0.9-0.5,1.4l3,2.5l-0.9,3.7
	c-0.2,0.7,0.6,1.2,1.2,0.9l3.3-2l3.3,2c0.6,0.4,1.4-0.2,1.2-0.9l-0.9-3.8l3-2.5C44.3,52.5,44,51.6,43.3,51.6z M60.7,51.6l-3.9-0.3
	l-1.4-3.6c-0.3-0.7-1.2-0.7-1.5,0l-1.4,3.6l-3.9,0.3c-0.7,0.1-1,0.9-0.5,1.4l3,2.5l-0.9,3.7c-0.2,0.7,0.6,1.2,1.2,0.9l3.3-2l3.3,2
	c0.6,0.4,1.4-0.2,1.2-0.9l-0.9-3.8l3-2.5C61.8,52.5,61.5,51.6,60.7,51.6z M78.2,51.6l-3.9-0.3l-1.4-3.6c-0.3-0.7-1.2-0.7-1.5,0
	l-1.4,3.6l-4,0.3c-0.7,0.1-1,0.9-0.5,1.4l3,2.5l-0.8,3.7c-0.2,0.7,0.6,1.2,1.2,0.9l3.3-2l3.3,2c0.6,0.4,1.4-0.2,1.2-0.9l-0.9-3.8
	l3-2.5C79.2,52.5,78.9,51.6,78.2,51.6z M95.6,51.6l-3.9-0.3l-1.4-3.6c-0.3-0.7-1.2-0.7-1.5,0l-1.4,3.6l-3.9,0.3
	c-0.7,0.1-1,0.9-0.5,1.4l3,2.5L85,59.2c-0.2,0.7,0.6,1.2,1.2,0.9l3.3-2l3.3,2c0.6,0.4,1.4-0.2,1.2-0.9L93,55.5l3-2.5
	C96.6,52.5,96.3,51.6,95.6,51.6z M112.9,51.6l-3.9-0.3l-1.4-3.6c-0.3-0.7-1.2-0.7-1.5,0l-1.4,3.6l-3.9,0.3c-0.7,0.1-1,0.9-0.5,1.4
	l3,2.5l-0.8,3.7c-0.2,0.7,0.6,1.2,1.2,0.9l3.3-2l3.3,2c0.6,0.4,1.4-0.2,1.2-0.9l-0.9-3.8l3-2.5C113.9,52.5,113.7,51.6,112.9,51.6z
	 M47.7,18.4c-1.5-1.3-1.5-3.7,0-5l1-0.8c1.1-0.9,1.4-2.4,0.9-3.8l-0.5-1.2c-0.8-1.8,0.2-4,2.1-4.5l1.2-0.3c1.3-0.4,2.3-1.6,2.4-3.1
	L55-1.6c0.1-2,1.9-3.5,3.9-3.1l1.3,0.2c1.4,0.2,2.9-0.4,3.5-1.6l0.6-1.1c0.9-1.7,3.3-2.2,4.9-1.1l1,0.8c1.1,0.8,2.8,0.8,3.9,0l1-0.7
	C76.7-9.3,79-8.8,80-7.1L80.6-6c0.7,1.2,2,1.9,3.5,1.7l1.3-0.2c1.9-0.3,3.8,1.1,3.9,3.2L89.4,0c0.1,1.4,1,2.6,2.4,3.1L93,3.5
	C95,4,96,6.1,95.2,8l-0.5,1.2c-0.5,1.3-0.2,2.9,0.8,3.8l1,0.9c1.5,1.3,1.5,3.7,0,5l-1,0.8c-1.1,0.9-1.4,2.4-0.9,3.8l0.5,1.2
	c0.8,1.8-0.2,4-2.1,4.5l-1.2,0.3c-1.3,0.4-2.3,1.6-2.4,3.1l-0.1,1.3c-0.1,2-1.9,3.5-3.9,3.1L84,36.7c-1.4-0.2-2.9,0.4-3.5,1.6
	l-0.6,1.1c-0.9,1.7-3.3,2.2-4.9,1.1l-1-0.8c-1.1-0.8-2.8-0.8-3.9,0l-1,0.7c-1.6,1.1-3.9,0.6-4.9-1.1l-0.6-1.1
	c-0.7-1.2-2-1.9-3.5-1.7l-1.3,0.2c-1.9,0.3-3.8-1.1-3.9-3.2l-0.1-1.3c-0.1-1.4-1-2.6-2.4-3.1l-1.2-0.5c-1.9-0.5-3-2.6-2.1-4.5
	l0.5-1.2c0.5-1.3,0.2-2.9-0.8-3.8L47.7,18.4z M55.8,15.9c0,9,7.3,16.3,16.3,16.3s16.3-7.3,16.3-16.3S81-0.4,72.1-0.4
	S55.8,7,55.8,15.9z M63.7,24.8h2.6c0.4,0,0.7-0.1,1-0.3c0.1-0.1,0.4-0.4,0.4-1.4v-4.4c0,0,0,5.4,3.1,5.7c1.1,0.1,2.4,0.1,3.8,0.1
	c1.2,0.1,2.5,0.1,3.6-0.1c3.5-0.7,2.6-3.2,2.6-3.2c1.8-1.4,0.8-3.2,0.8-3.2c1.6-1.7,0-3.3,0-3.3s0.9-1.4-0.3-2.4
	C79.9,11,75.9,12,75.9,12l0,0c-0.3,0-0.6,0.1-0.9,0.2c0,0-1.3,0.6,0-3.6c1.3-4.2-0.9-4.8-1.8-4.8c-0.9,0-0.6,2-0.6,2s-2,5.7-4,7.1
	c-0.5,0.5-0.8,1.1-0.9,1.6c-0.3-0.3-0.7-0.4-1.1-0.4h-2.6c-1,0-1.7,0.8-1.7,1.7v7C61.9,24,62.7,24.8,63.7,24.8z"/>
</svg>
